{"glyphs":{"0":{"ha":592,"x_min":46,"x_max":546,"o":"m 296 -25 q 482 100 418 -25 q 546 449 546 225 q 482 797 546 672 q 296 922 418 922 q 110 797 174 922 q 46 449 46 672 q 110 100 46 225 q 296 -25 174 -25 m 160 449 q 193 752 160 640 q 296 864 226 864 q 399 752 365 864 q 432 449 432 640 q 399 145 432 257 q 296 33 365 33 q 193 145 226 33 q 160 449 160 257 z "},"1":{"ha":592,"x_min":122,"x_max":500,"o":"m 261 167 q 257 101 261 124 q 241 66 253 78 q 210 51 229 54 q 153 47 190 47 l 122 10 l 132 -7 l 169 -6 q 304 0 261 0 q 424 -4 343 0 q 469 -7 467 -7 l 500 31 l 490 47 q 420 51 444 47 q 383 65 396 54 q 366 99 371 76 q 361 167 361 122 l 361 907 l 338 922 q 254 856 293 879 q 150 811 215 833 l 128 774 l 138 757 q 200 764 172 764 q 249 745 236 764 q 261 667 261 726 l 261 167 z "},"2":{"ha":592,"x_min":32,"x_max":553,"o":"m 50 -7 q 140 -4 79 -7 q 260 0 219 0 q 440 -4 319 0 q 499 -7 461 -6 q 520 118 508 60 q 553 267 532 176 l 540 281 l 494 260 q 463 174 476 203 q 428 128 449 144 q 375 106 408 111 q 283 100 342 100 l 139 100 q 210 206 172 157 q 310 328 249 256 q 395 431 365 393 q 452 514 425 468 q 495 610 479 560 q 511 715 511 660 q 449 875 511 821 q 385 911 421 900 q 310 922 349 922 q 143 866 197 922 q 82 710 89 810 q 85 663 82 696 l 104 650 l 182 685 q 179 739 179 721 q 206 836 179 808 q 279 864 233 864 q 365 820 333 864 q 397 694 397 776 q 345 518 397 610 q 192 292 293 426 q 91 151 128 206 q 32 44 54 96 l 50 -7 z "},"3":{"ha":592,"x_min":56,"x_max":531,"o":"m 122 643 l 194 683 q 192 725 192 708 q 216 828 192 793 q 283 864 240 864 q 360 820 335 864 q 386 699 386 776 q 372 604 386 642 q 335 545 358 567 q 288 514 313 524 q 225 493 264 504 l 215 490 l 197 451 l 206 439 q 287 428 250 439 q 353 392 324 417 q 399 322 382 367 q 417 210 417 276 q 385 81 417 129 q 296 33 353 33 q 238 49 264 33 q 196 88 213 64 q 170 139 179 113 q 161 188 161 165 q 164 225 161 203 l 142 249 l 56 181 q 81 113 63 149 q 131 47 100 78 q 203 -5 161 15 q 299 -25 246 -25 q 392 -4 349 -25 q 466 55 435 17 q 514 143 497 93 q 531 250 531 193 q 477 413 531 353 q 339 483 424 474 l 339 486 q 394 518 367 499 q 445 565 421 538 q 485 633 469 593 q 500 721 500 672 q 447 866 500 810 q 310 922 393 922 q 151 862 207 922 q 94 694 94 801 q 96 658 94 671 l 122 643 z "},"4":{"ha":592,"x_min":28,"x_max":578,"o":"m 331 -10 l 343 -25 l 431 4 l 431 189 l 536 189 l 578 343 l 563 360 l 526 347 q 497 287 514 301 q 431 272 479 272 l 431 922 l 361 922 l 28 279 l 40 189 l 331 189 l 331 -10 m 328 740 l 331 740 l 331 272 l 92 272 l 328 740 z "},"5":{"ha":592,"x_min":49,"x_max":536,"o":"m 493 797 l 525 929 l 514 935 l 483 929 q 440 902 465 907 q 353 897 414 897 l 113 897 q 106 659 113 765 q 82 442 99 553 l 118 413 l 128 419 q 204 474 172 456 q 272 492 236 492 q 378 426 335 492 q 422 249 422 361 q 383 89 422 144 q 283 33 343 33 q 224 51 249 33 q 186 96 200 68 q 167 153 172 124 q 158 217 161 183 l 135 250 l 49 172 l 50 169 q 86 96 69 126 q 130 38 103 65 q 196 -8 157 10 q 288 -25 235 -25 q 384 -3 339 -25 q 463 60 429 19 q 517 158 497 101 q 536 279 536 214 q 476 490 536 406 q 314 575 417 575 q 231 557 269 575 q 150 506 192 539 q 165 643 158 572 q 171 797 171 714 l 493 797 z "},"6":{"ha":592,"x_min":53,"x_max":546,"o":"m 506 861 l 506 878 q 424 910 463 899 q 349 922 386 922 q 224 885 279 922 q 130 778 168 847 q 72 617 92 710 q 53 415 53 525 q 119 95 53 215 q 307 -25 186 -25 q 407 1 363 -25 q 483 72 451 26 q 530 178 514 118 q 546 306 546 239 q 492 501 546 426 q 347 576 439 576 q 249 553 288 576 q 171 486 211 529 q 158 472 167 482 q 165 597 158 533 q 190 719 172 661 q 242 815 208 778 q 328 853 276 853 q 382 840 358 853 q 433 803 406 826 q 450 789 447 792 l 506 861 m 167 304 q 202 440 167 388 q 301 493 238 493 q 397 428 361 493 q 432 263 432 363 q 401 97 432 161 q 311 33 369 33 q 207 110 247 33 q 167 304 167 188 z "},"7":{"ha":592,"x_min":47,"x_max":579,"o":"m 194 -25 l 299 13 q 310 205 299 119 q 343 363 321 290 q 397 503 365 435 q 478 664 428 572 l 579 850 l 561 904 q 340 897 439 897 q 108 904 236 897 q 84 778 99 839 q 47 638 69 717 l 64 628 l 111 639 l 118 663 q 168 768 143 739 q 264 797 193 797 l 479 797 l 376 607 q 354 567 374 600 q 290 445 317 497 q 236 325 264 393 q 191 188 208 257 q 174 54 174 118 q 176 7 174 38 q 178 -14 178 -14 l 194 -25 z "},"8":{"ha":592,"x_min":60,"x_max":531,"o":"m 296 -25 q 378 -9 338 -25 q 454 39 419 7 q 510 118 489 71 q 531 225 531 165 q 518 315 531 276 q 484 381 506 354 q 438 428 463 408 q 375 474 413 449 l 361 483 l 371 492 q 467 591 431 542 q 503 714 503 640 q 446 865 503 808 q 296 922 389 922 q 150 858 213 922 q 88 683 88 794 q 122 550 88 597 q 217 461 156 503 q 157 419 183 440 q 108 368 131 397 q 73 300 86 339 q 60 213 60 261 q 74 130 60 172 q 118 52 89 88 q 192 -4 147 17 q 296 -25 238 -25 m 160 238 q 183 345 160 306 q 251 426 207 385 l 254 429 q 265 422 258 426 q 376 329 344 367 q 417 267 403 300 q 431 194 431 235 q 393 79 431 125 q 296 33 356 33 q 194 91 228 33 q 160 238 160 149 m 188 717 q 221 822 188 779 q 296 864 254 864 q 376 818 350 864 q 403 700 403 772 q 378 590 403 632 q 314 513 354 549 q 294 531 307 518 q 214 615 240 576 q 188 717 188 653 z "},"9":{"ha":592,"x_min":46,"x_max":539,"o":"m 65 36 l 65 19 q 153 -13 114 -1 q 232 -25 193 -25 q 363 13 306 -25 q 460 119 421 50 q 519 280 500 188 q 539 482 539 372 q 472 802 539 682 q 285 922 406 922 q 185 897 229 922 q 109 825 140 871 q 62 719 78 779 q 46 592 46 658 q 99 397 46 472 q 244 321 153 321 q 342 344 304 321 q 421 411 381 368 q 433 425 425 417 q 426 298 433 361 q 400 177 419 235 q 344 82 381 119 q 253 44 308 44 q 196 56 219 44 q 143 92 172 68 q 121 108 126 106 l 65 36 m 160 635 q 191 800 160 736 q 281 864 222 864 q 385 787 346 864 q 425 593 425 710 q 390 457 425 510 q 290 404 354 404 q 195 469 231 404 q 160 635 160 535 z "}," ":{"ha":697,"x_min":-1,"x_max":693,"o":"m -1 0 l 693 0 l 693 694 l -1 694 l -1 0 m 13 14 l 13 681 l 679 681 l 679 14 l 13 14 z "}," ":{"ha":335,"x_min":0,"x_max":0,"o":""},"!":{"ha":335,"x_min":97,"x_max":236,"o":"m 167 -25 q 217 -1 197 -25 q 236 56 236 24 q 217 112 236 88 q 167 136 197 136 q 117 112 136 136 q 97 56 97 88 q 117 -1 97 24 q 167 -25 136 -25 m 154 239 l 197 264 q 205 517 199 378 q 222 844 211 657 l 228 958 l 213 974 l 104 915 q 130 555 121 710 q 139 253 139 400 l 154 239 z "},"\"":{"ha":542,"x_min":99,"x_max":443,"o":"m 131 601 l 200 601 l 233 949 l 99 949 l 131 601 m 342 601 l 411 601 l 443 949 l 308 949 l 342 601 z "},"#":{"ha":592,"x_min":19,"x_max":571,"o":"m 29 -1 l 39 -25 l 99 -25 l 194 311 l 318 311 l 228 -4 l 243 -25 l 297 -25 l 394 311 l 494 311 l 510 368 l 500 381 l 414 381 l 457 533 l 557 533 l 571 581 l 561 603 l 478 603 l 563 901 l 546 922 l 492 922 l 401 603 l 278 603 l 363 896 l 343 922 l 293 922 l 201 603 l 96 603 l 81 549 l 96 533 l 182 533 l 138 381 l 33 381 l 19 331 l 39 311 l 118 311 l 29 -1 m 258 533 l 381 533 l 338 381 l 214 381 l 258 533 z "},"$":{"ha":592,"x_min":88,"x_max":503,"o":"m 251 -87 l 310 -87 l 310 24 q 444 97 386 33 q 503 271 503 161 q 487 367 503 325 q 444 438 471 408 q 385 486 417 467 q 310 528 354 506 l 310 814 q 370 767 354 796 q 399 672 386 738 l 419 665 l 450 713 q 431 825 436 775 l 421 842 q 310 872 375 863 l 310 944 l 251 944 l 251 872 q 195 849 222 864 q 144 807 168 833 q 107 742 121 781 q 93 651 93 703 q 106 569 93 606 q 142 508 119 533 q 189 463 164 482 q 251 422 214 444 l 251 82 q 172 143 193 97 q 147 276 151 189 l 128 283 l 88 235 q 93 89 93 169 l 104 71 q 172 42 142 51 q 251 24 203 32 l 251 -87 m 251 558 q 190 616 210 586 q 169 692 169 646 q 194 772 169 744 q 251 814 218 799 l 251 558 m 310 393 q 388 335 358 372 q 417 236 417 299 q 385 128 417 168 q 310 82 354 89 l 310 393 z "},"%":{"ha":1003,"x_min":99,"x_max":903,"o":"m 242 -12 l 254 -25 l 311 -12 l 760 914 l 753 932 l 701 925 l 693 919 q 603 871 647 889 q 496 853 560 853 q 422 863 454 853 q 356 888 390 872 q 344 893 344 893 q 297 915 315 908 q 257 922 278 922 q 142 851 186 922 q 99 642 99 779 q 142 434 99 506 q 257 363 186 363 q 372 434 328 363 q 415 642 415 506 q 388 817 415 722 q 444 801 414 807 q 501 794 474 794 q 651 838 572 794 l 654 835 l 242 -12 m 185 642 q 204 812 185 753 q 257 871 224 871 q 310 812 290 871 q 329 642 329 753 q 310 473 329 532 q 257 414 290 414 q 204 473 224 414 q 185 642 185 532 m 744 -25 q 859 47 815 -25 q 903 254 903 118 q 859 463 903 392 q 744 535 815 535 q 630 463 674 535 q 586 254 586 392 q 630 47 586 118 q 744 -25 674 -25 m 672 254 q 692 424 672 365 q 744 483 711 483 q 797 424 778 483 q 817 254 817 365 q 797 85 817 144 q 744 26 778 26 q 692 85 711 26 q 672 254 672 144 z "},"&":{"ha":824,"x_min":57,"x_max":822,"o":"m 822 110 l 800 129 q 793 121 794 124 q 757 85 772 97 q 722 72 742 72 q 657 108 701 72 q 568 189 613 143 q 603 290 592 247 q 626 383 615 333 q 640 438 633 421 q 658 466 646 456 q 694 481 671 476 q 760 485 717 485 l 788 522 l 778 539 q 738 536 764 539 q 626 532 663 532 q 518 536 588 532 q 476 539 496 538 l 449 501 l 458 485 q 538 463 517 485 q 558 383 558 440 q 550 306 558 349 q 528 233 542 264 q 453 323 476 293 q 407 383 429 353 q 363 451 385 414 q 315 539 342 488 q 376 602 349 571 q 428 670 403 633 q 469 749 453 707 q 485 835 485 792 q 451 937 485 900 q 356 974 417 974 q 224 907 282 974 q 167 725 167 840 q 180 623 167 675 q 217 507 193 571 q 160 448 188 479 q 110 379 133 417 q 72 300 86 342 q 57 217 57 258 q 72 132 57 175 q 118 53 88 89 q 192 -3 149 18 q 290 -25 236 -25 q 412 9 357 -25 q 510 89 467 43 q 532 68 521 78 q 616 -3 585 19 q 678 -25 647 -25 q 732 -7 706 -25 q 783 40 758 11 l 822 110 m 163 264 q 182 362 163 319 q 239 458 201 404 q 288 371 265 408 q 335 297 310 333 q 392 224 361 261 q 472 131 424 186 q 408 78 446 99 q 335 58 371 58 q 210 116 258 58 q 163 264 163 174 m 258 772 q 281 883 258 846 q 336 919 303 919 q 385 888 369 919 q 401 819 401 857 q 372 693 401 749 q 297 585 343 638 q 269 686 279 642 q 258 772 258 731 z "},"'":{"ha":335,"x_min":100,"x_max":235,"o":"m 135 601 l 204 601 l 235 949 l 100 949 l 135 601 z "},"(":{"ha":335,"x_min":99,"x_max":282,"o":"m 200 -339 l 274 -276 q 210 73 233 -83 q 188 375 188 229 q 196 538 188 456 q 218 697 204 619 q 249 839 232 774 q 282 960 265 904 l 263 974 l 199 894 q 126 588 154 743 q 99 282 99 433 q 106 126 99 208 q 126 -37 114 44 q 151 -187 138 -118 q 179 -322 165 -257 l 200 -339 z "},")":{"ha":335,"x_min":53,"x_max":236,"o":"m 72 -339 l 136 -260 q 208 47 181 -108 q 236 353 236 201 q 228 508 236 426 q 209 672 221 590 q 183 822 197 753 q 156 957 169 892 l 135 974 l 61 911 q 124 562 101 718 q 147 260 147 406 q 139 98 147 179 q 117 -61 131 17 q 87 -204 103 -139 q 53 -325 71 -269 l 72 -339 z "},"*":{"ha":592,"x_min":122,"x_max":469,"o":"m 254 500 l 335 500 l 344 515 q 320 598 328 564 q 308 683 313 632 l 317 689 q 382 617 343 665 q 406 588 404 590 l 425 583 l 468 644 l 460 663 q 419 679 444 669 q 332 721 358 703 l 332 731 q 392 760 368 749 q 457 786 417 771 l 469 801 l 429 863 l 410 857 q 364 800 383 821 q 319 760 344 779 l 311 765 l 313 779 q 324 867 318 835 q 344 931 331 899 l 335 949 l 254 949 l 244 931 q 271 853 263 892 q 282 765 279 815 l 275 761 q 234 803 251 783 q 190 856 217 822 l 168 865 l 122 800 l 135 783 q 204 760 176 771 q 265 731 232 749 l 265 721 q 210 692 232 701 q 143 667 188 682 q 136 664 143 667 l 122 650 l 165 582 l 186 589 q 207 614 190 593 q 244 655 231 640 q 275 688 257 669 l 281 682 l 278 661 q 265 583 271 613 q 244 515 258 554 l 254 500 z "},"+":{"ha":1003,"x_min":154,"x_max":849,"o":"m 460 -25 l 543 -25 l 543 285 l 849 285 l 849 368 l 543 368 l 543 678 l 460 678 l 460 368 l 154 368 l 154 285 l 460 285 l 460 -25 z "},",":{"ha":335,"x_min":82,"x_max":232,"o":"m 96 -229 l 151 -187 l 232 136 l 214 153 l 115 75 q 104 -72 113 -4 q 82 -211 96 -139 l 96 -229 z "},"-":{"ha":335,"x_min":24,"x_max":311,"o":"m 24 325 l 35 308 l 249 308 l 311 386 l 301 403 l 90 403 l 24 325 z "},".":{"ha":335,"x_min":97,"x_max":236,"o":"m 167 -25 q 217 -1 197 -25 q 236 56 236 24 q 217 112 236 88 q 167 136 197 136 q 117 112 136 136 q 97 56 97 88 q 117 -1 97 24 q 167 -25 136 -25 z "},"/":{"ha":335,"x_min":42,"x_max":293,"o":"m 42 -12 l 60 -25 l 117 -12 l 293 993 l 279 1006 l 218 993 l 42 -12 z "},":":{"ha":335,"x_min":97,"x_max":236,"o":"m 167 -25 q 217 -1 197 -25 q 236 56 236 24 q 217 112 236 88 q 167 136 197 136 q 117 112 136 136 q 97 56 97 88 q 117 -1 97 24 q 167 -25 136 -25 m 167 494 q 217 519 197 494 q 236 575 236 543 q 217 631 236 607 q 167 656 197 656 q 117 631 136 656 q 97 575 97 607 q 117 519 97 543 q 167 494 136 494 z "},";":{"ha":335,"x_min":82,"x_max":238,"o":"m 96 -229 l 151 -187 l 232 136 l 214 153 l 115 75 q 104 -72 113 -4 q 82 -211 96 -139 l 96 -229 m 168 494 q 218 519 199 494 q 238 575 238 543 q 218 631 238 607 q 168 656 199 656 q 118 631 138 656 q 99 575 99 607 q 118 519 99 543 q 168 494 138 494 z "},"<":{"ha":1003,"x_min":129,"x_max":874,"o":"m 874 -25 l 874 97 l 264 357 l 874 617 l 874 739 l 129 417 l 129 297 l 874 -25 z "},"=":{"ha":1003,"x_min":154,"x_max":849,"o":"m 154 181 l 849 181 l 849 264 l 154 264 l 154 181 m 154 389 l 849 389 l 849 472 l 154 472 l 154 389 z "},">":{"ha":1003,"x_min":129,"x_max":874,"o":"m 129 -25 l 874 297 l 874 417 l 129 739 l 129 617 l 739 357 l 129 97 l 129 -25 z "},"?":{"ha":463,"x_min":44,"x_max":443,"o":"m 168 239 l 224 264 q 253 408 224 349 q 340 539 282 467 q 417 655 392 606 q 443 772 443 704 q 387 920 443 867 q 239 974 331 974 q 100 924 156 974 q 44 781 44 874 l 44 731 l 68 715 l 136 753 l 136 789 q 158 884 136 849 q 232 919 179 919 q 310 878 282 919 q 338 753 338 836 q 317 641 338 689 q 253 526 296 593 q 181 393 206 451 q 157 253 157 335 l 168 239 m 199 -25 q 249 -1 229 -25 q 268 56 268 24 q 249 112 268 88 q 199 136 229 136 q 149 112 168 136 q 129 56 129 88 q 149 -1 129 24 q 199 -25 168 -25 z "},"@":{"ha":1003,"x_min":83,"x_max":918,"o":"m 822 103 q 686 19 758 53 q 510 -14 614 -14 q 379 3 442 -14 q 265 57 317 21 q 183 151 214 93 q 153 288 153 210 q 188 440 153 365 q 283 572 224 514 q 413 663 342 629 q 554 696 485 696 q 682 674 624 696 q 783 612 740 651 q 847 522 825 572 q 869 418 869 472 q 848 304 869 356 q 793 216 826 253 q 725 160 760 179 q 667 140 690 140 q 648 149 656 140 q 640 171 640 158 q 663 250 640 190 l 781 558 l 689 558 l 668 506 q 620 555 646 538 q 554 572 594 572 q 445 538 496 572 q 358 450 394 504 q 301 337 321 396 q 282 229 282 278 q 316 127 282 168 q 419 86 350 86 q 492 102 461 86 q 554 149 524 118 q 582 97 567 111 q 633 82 597 82 q 734 106 683 82 q 826 176 785 131 q 893 283 868 221 q 918 418 918 346 q 888 555 918 493 q 803 660 857 617 q 684 725 750 703 q 549 747 618 747 q 354 705 442 747 q 206 592 267 663 q 115 438 146 521 q 83 276 83 356 q 116 136 83 200 q 206 27 149 72 q 337 -42 264 -18 q 490 -65 410 -65 q 615 -51 557 -65 q 718 -16 674 -37 q 794 28 763 6 q 856 79 825 51 l 822 103 m 368 203 q 386 293 368 238 q 433 404 404 349 q 499 496 463 460 q 569 532 535 532 q 616 509 599 532 q 633 453 633 486 q 617 372 633 426 q 574 261 601 318 q 510 165 546 204 q 435 126 474 126 q 387 147 406 126 q 368 203 368 167 z "},"A":{"ha":797,"x_min":15,"x_max":782,"o":"m 143 190 q 117 111 128 139 q 97 70 107 83 q 77 53 88 57 q 46 47 67 49 l 15 10 l 25 -7 q 58 -4 47 -6 q 158 0 125 0 q 243 -4 186 0 q 275 -7 272 -7 l 306 31 l 296 47 q 235 60 254 47 q 215 117 215 74 q 219 157 215 132 q 231 206 224 182 l 264 338 l 506 338 l 553 167 q 565 92 565 119 q 549 58 565 68 q 507 47 533 47 l 476 10 l 486 -7 q 522 -4 510 -6 q 628 0 593 0 q 715 -4 657 0 q 751 -7 735 -6 l 782 31 l 772 47 q 734 54 747 50 q 710 72 721 58 q 690 111 700 85 q 667 190 681 138 l 446 967 l 421 974 l 364 933 l 143 190 m 381 786 l 383 786 l 488 400 l 281 400 l 381 786 z "},"B":{"ha":721,"x_min":44,"x_max":685,"o":"m 156 164 q 140 69 156 90 q 75 47 125 47 l 44 10 l 54 -7 l 92 -4 q 215 0 168 0 q 308 -4 249 0 q 390 -7 364 -7 q 498 9 446 -7 q 592 56 550 25 q 660 135 635 88 q 685 244 685 183 q 665 357 685 310 q 612 434 644 404 q 542 481 579 464 q 464 508 506 497 l 464 511 q 522 539 493 522 q 576 583 550 556 q 619 651 603 610 q 636 749 636 693 q 618 848 636 807 q 568 913 600 889 q 497 946 536 936 q 410 956 457 956 q 311 953 374 956 q 215 949 243 949 q 111 953 178 949 q 75 956 88 956 l 44 918 l 54 901 q 138 881 121 901 q 156 785 156 861 l 156 164 m 276 893 l 350 893 q 472 856 429 893 q 515 729 515 819 q 498 623 515 664 q 449 561 481 582 q 376 533 417 540 q 276 526 335 526 l 276 893 m 276 464 l 353 464 q 495 413 440 464 q 550 260 550 363 q 504 109 550 163 q 374 56 458 56 q 299 78 321 56 q 276 164 276 100 l 276 464 z "},"C":{"ha":797,"x_min":49,"x_max":756,"o":"m 740 279 l 685 249 q 650 182 668 213 q 606 123 632 151 q 542 76 579 94 q 456 58 504 58 q 342 92 393 58 q 256 187 292 126 q 202 325 221 247 q 183 488 183 403 q 251 792 183 679 q 450 904 319 904 q 551 878 510 904 q 617 810 593 851 q 653 723 642 768 q 671 629 665 678 l 689 613 l 740 660 q 729 910 729 782 q 586 957 649 940 q 453 974 524 974 q 283 937 358 974 q 155 833 207 900 q 76 675 103 765 q 49 479 49 585 q 76 288 49 379 q 155 126 104 196 q 276 15 206 56 q 431 -25 347 -25 q 560 3 503 -25 q 656 76 617 32 q 719 169 696 121 q 756 261 743 217 l 740 279 z "},"D":{"ha":900,"x_min":40,"x_max":846,"o":"m 151 164 q 136 69 151 90 q 71 47 121 47 l 40 10 l 50 -7 l 88 -4 q 211 0 164 0 q 297 -3 239 0 q 401 -7 365 -7 q 622 35 533 -7 q 760 147 711 78 q 827 297 808 217 q 846 463 846 378 q 813 695 846 600 q 719 848 779 790 q 575 931 658 906 q 386 956 492 956 q 304 953 361 956 q 211 949 243 949 q 107 953 174 949 q 71 956 83 956 l 40 918 l 50 901 q 134 881 117 901 q 151 785 151 861 l 151 164 m 272 893 q 466 879 390 893 q 597 821 542 865 q 682 686 653 776 q 711 444 711 596 q 634 151 711 247 q 371 56 557 56 q 291 75 310 56 q 272 164 272 94 l 272 893 z "},"E":{"ha":694,"x_min":43,"x_max":650,"o":"m 154 164 q 139 69 154 90 q 74 47 124 47 l 43 10 l 53 -7 q 165 -4 89 -7 q 317 0 268 0 q 489 -4 374 0 q 617 -7 575 -7 q 650 315 629 146 l 635 329 l 581 286 l 579 279 q 559 174 568 210 q 532 113 550 139 q 480 75 514 88 q 388 63 446 63 q 294 83 314 63 q 275 164 275 104 l 275 464 l 368 464 q 437 432 422 464 q 451 308 451 400 l 469 299 l 518 329 q 511 493 511 417 q 513 583 511 542 q 518 675 515 625 l 501 685 l 451 654 q 438 550 451 574 q 368 526 424 526 l 275 526 l 275 886 l 349 886 q 464 873 421 886 q 527 836 507 860 q 554 782 547 813 q 567 694 561 751 l 582 683 l 636 721 q 617 956 617 857 q 479 951 551 953 q 342 949 407 949 q 74 956 163 949 l 43 918 l 53 901 q 137 881 119 901 q 154 785 154 861 l 154 164 z "},"F":{"ha":668,"x_min":44,"x_max":638,"o":"m 156 164 q 140 69 156 90 q 75 47 125 47 l 44 10 l 54 -7 l 92 -4 q 215 0 168 0 q 346 -6 260 0 l 371 -7 l 401 31 l 392 47 q 331 51 353 47 q 297 67 310 56 q 276 164 276 88 l 276 464 l 369 464 q 438 432 424 464 q 453 308 453 400 l 471 299 l 519 329 q 513 493 513 417 q 515 583 513 542 q 519 675 517 625 l 503 685 l 453 654 q 439 550 453 574 q 369 526 425 526 l 276 526 l 276 883 l 350 883 q 465 870 422 883 q 528 833 508 857 q 556 779 549 810 q 568 692 563 749 l 583 681 l 638 718 q 618 953 618 854 q 481 948 553 950 q 343 946 408 946 q 75 953 164 946 l 44 915 l 54 899 q 138 878 121 899 q 156 782 156 858 l 156 164 z "},"G":{"ha":900,"x_min":42,"x_max":854,"o":"m 764 67 q 741 134 749 92 q 733 222 733 176 q 751 347 733 317 q 824 379 769 378 l 854 417 l 844 433 q 679 426 751 426 q 599 428 638 426 q 519 433 561 431 l 489 396 l 499 379 q 569 375 544 379 q 606 358 593 371 q 624 322 619 346 q 628 251 628 297 l 628 72 q 485 44 551 44 q 342 84 401 44 q 246 192 282 124 q 193 344 210 260 q 176 522 176 429 q 247 798 176 692 q 440 904 317 904 q 547 881 504 904 q 614 822 590 858 q 649 748 638 785 q 669 657 660 711 l 672 646 l 697 636 l 742 682 q 732 797 736 733 q 728 917 728 861 q 598 958 658 943 q 464 974 538 974 q 298 944 375 974 q 163 853 221 914 q 74 701 106 793 q 42 490 42 610 q 66 302 42 393 q 142 137 90 211 q 278 19 194 63 q 476 -25 363 -25 q 558 -18 515 -25 q 640 0 600 -11 q 710 23 679 11 q 758 43 740 35 l 764 67 z "},"H":{"ha":900,"x_min":43,"x_max":856,"o":"m 154 164 q 139 69 154 90 q 74 47 124 47 l 43 10 l 53 -7 l 90 -4 q 214 0 167 0 q 333 -6 254 0 q 356 -7 349 -7 l 386 31 l 376 47 q 293 67 311 47 q 275 164 275 88 l 275 465 l 624 465 l 624 164 q 608 69 624 90 q 543 47 593 47 l 513 10 l 522 -7 l 560 -4 q 683 0 636 0 q 803 -6 724 0 q 825 -7 818 -7 l 856 31 l 846 47 q 763 67 781 47 q 744 164 744 88 l 744 785 q 759 881 744 860 q 825 901 774 901 l 856 939 l 846 956 q 801 953 843 956 q 683 949 724 949 q 579 953 646 949 q 543 956 556 956 l 513 918 l 522 901 q 606 881 589 901 q 624 785 624 861 l 624 528 l 275 528 l 275 785 q 290 881 275 860 q 356 901 304 901 l 386 939 l 376 956 q 332 953 374 956 q 214 949 254 949 q 110 953 176 949 q 74 956 86 956 l 43 918 l 53 901 q 137 881 119 901 q 154 785 154 861 l 154 164 z "},"I":{"ha":438,"x_min":47,"x_max":390,"o":"m 158 164 q 143 69 158 90 q 78 47 128 47 l 47 10 l 57 -7 l 94 -4 q 218 0 171 0 q 338 -6 258 0 q 360 -7 353 -7 l 390 31 l 381 47 q 297 67 315 47 q 279 164 279 88 l 279 785 q 294 881 279 860 q 360 901 308 901 l 390 939 l 381 956 q 336 953 378 956 q 218 949 258 949 q 114 953 181 949 q 78 956 90 956 l 47 918 l 57 901 q 141 881 124 901 q 158 785 158 861 l 158 164 z "},"J":{"ha":438,"x_min":-47,"x_max":394,"o":"m 163 -178 q 156 -249 163 -233 q 128 -264 149 -264 q 76 -252 106 -264 q 14 -222 47 -240 l -47 -308 l -42 -325 q 74 -358 28 -358 q 170 -326 129 -358 q 235 -245 211 -294 q 272 -143 260 -196 q 283 -50 283 -90 l 283 785 q 298 881 283 860 q 364 901 313 901 l 394 939 l 385 956 q 340 953 382 956 q 222 949 263 949 q 118 953 185 949 q 82 956 94 956 l 51 918 l 61 901 q 145 881 128 901 q 163 785 163 861 l 163 -178 z "},"K":{"ha":772,"x_min":46,"x_max":772,"o":"m 157 164 q 142 69 157 90 q 76 47 126 47 l 46 10 l 56 -7 l 93 -4 q 217 0 169 0 q 336 -6 257 0 q 358 -7 351 -7 l 389 31 l 379 47 q 296 67 314 47 q 278 164 278 88 l 278 401 l 353 474 l 508 179 q 540 90 540 118 q 528 59 540 68 q 486 47 515 50 l 456 10 l 465 -7 q 531 -4 488 -7 q 621 0 590 0 q 689 -4 644 0 q 742 -7 724 -7 l 772 31 l 763 47 q 728 51 742 47 q 701 67 714 56 q 676 102 689 79 q 640 168 663 125 l 431 565 q 480 635 454 597 q 554 744 506 672 q 608 826 588 797 q 647 872 629 856 q 684 895 665 889 q 729 901 703 901 l 760 939 l 750 956 q 696 953 732 956 q 625 949 649 949 q 547 953 599 949 q 489 956 508 956 l 458 918 l 468 901 q 506 887 492 899 q 519 850 519 875 q 495 776 519 824 q 433 674 471 729 q 353 568 394 618 q 278 485 311 518 l 278 785 q 292 881 278 860 q 358 901 307 901 l 389 939 l 379 956 q 335 953 376 956 q 217 949 257 949 q 113 953 179 949 q 76 956 89 956 l 46 918 l 56 901 q 140 881 122 901 q 157 785 157 861 l 157 164 z "},"L":{"ha":694,"x_min":46,"x_max":653,"o":"m 157 164 q 142 69 157 90 q 76 47 126 47 l 46 10 l 56 -7 q 121 -4 76 -7 q 311 0 239 0 q 486 -4 369 0 q 618 -7 574 -7 q 653 317 632 175 l 635 329 l 583 292 q 581 272 582 282 q 560 170 568 206 q 535 110 551 135 q 488 74 518 86 q 407 63 458 63 q 305 83 332 63 q 278 164 278 103 l 278 785 q 294 881 278 860 q 372 901 311 901 l 403 939 l 393 956 q 347 953 378 956 q 217 949 263 949 q 113 953 179 949 q 76 956 89 956 l 46 918 l 56 901 q 140 881 122 901 q 157 785 157 861 l 157 164 z "},"M":{"ha":1054,"x_min":26,"x_max":1019,"o":"m 133 222 q 110 86 126 119 q 57 47 94 53 l 26 10 l 36 -7 q 65 -4 56 -6 q 153 0 124 0 q 251 -4 186 0 q 283 -7 261 -6 l 314 31 l 304 47 q 219 78 239 50 q 200 196 200 107 q 204 269 200 228 l 231 801 l 233 801 l 485 -15 l 526 -15 l 772 801 l 775 801 l 801 199 q 803 158 801 188 q 804 131 804 139 q 788 69 804 90 q 729 47 772 49 l 699 10 l 708 -7 q 744 -6 732 -6 q 861 0 824 0 q 953 -4 892 0 q 989 -7 972 -6 l 1019 31 l 1010 47 q 945 73 963 51 q 922 179 928 94 l 883 763 q 881 799 882 776 q 879 832 879 821 q 899 885 879 872 q 976 901 918 897 l 1007 939 l 997 956 q 971 953 978 954 q 893 949 919 949 q 793 953 857 949 q 760 956 771 956 l 533 201 l 531 201 l 317 956 l 294 954 q 219 949 243 949 q 133 954 192 949 q 108 956 125 954 l 78 918 l 88 901 q 156 890 139 901 q 174 836 174 878 q 172 799 174 824 q 169 771 169 776 l 133 222 z "},"N":{"ha":875,"x_min":31,"x_max":839,"o":"m 142 194 q 125 74 142 101 q 61 47 108 47 l 31 10 l 40 -7 q 74 -4 61 -6 q 175 0 140 0 q 269 -4 208 0 q 303 -7 292 -7 l 333 31 l 324 47 q 262 53 283 47 q 228 74 240 58 q 213 117 217 89 q 208 194 208 144 l 208 807 l 211 807 l 654 -15 l 728 -15 l 728 740 q 731 826 728 796 q 742 872 733 856 q 765 894 750 888 q 808 901 779 900 l 839 939 l 829 956 q 799 954 814 954 q 699 949 729 949 q 604 953 667 949 q 567 956 585 954 l 536 918 l 546 901 q 636 870 611 901 q 661 740 661 839 l 661 214 l 658 214 l 258 956 l 233 953 q 157 949 183 949 q 92 953 135 949 q 61 956 74 954 l 31 918 l 40 901 q 94 897 75 901 q 123 879 113 893 q 138 837 133 865 q 142 754 142 808 l 142 194 z "},"O":{"ha":875,"x_min":49,"x_max":826,"o":"m 440 -25 q 597 13 525 -25 q 719 120 668 51 q 799 278 771 189 q 826 464 826 367 q 798 657 826 565 q 717 820 769 749 q 593 933 665 892 q 436 974 521 974 q 274 935 346 974 q 151 826 201 896 q 75 667 101 757 q 49 475 49 576 q 78 285 49 376 q 160 124 107 194 q 286 15 214 54 q 440 -25 358 -25 m 183 511 q 245 797 183 690 q 425 904 307 904 q 535 868 485 904 q 619 767 585 832 q 673 619 654 703 q 692 443 692 535 q 628 154 692 264 q 451 44 564 44 q 340 80 390 44 q 255 180 290 115 q 201 329 219 244 q 183 511 183 414 z "},"P":{"ha":694,"x_min":39,"x_max":632,"o":"m 150 164 q 135 69 150 90 q 69 47 119 47 l 39 10 l 49 -7 l 86 -4 q 210 0 163 0 q 329 -6 250 0 q 351 -7 344 -7 l 382 31 l 372 47 q 289 67 307 47 q 271 164 271 88 l 271 436 q 364 422 314 422 q 563 505 494 422 q 632 718 632 588 q 578 895 632 835 q 414 956 525 956 q 318 953 388 956 q 210 949 244 949 q 99 954 169 949 q 69 956 78 956 l 39 918 l 49 901 q 131 881 111 901 q 150 785 150 861 l 150 164 m 271 893 l 344 893 q 458 849 419 893 q 497 700 497 804 q 491 617 497 656 q 468 549 485 579 q 424 502 451 519 q 354 485 396 485 q 271 510 315 485 l 271 893 z "},"Q":{"ha":875,"x_min":49,"x_max":925,"o":"m 925 -117 l 913 -99 q 800 -147 853 -131 q 679 -162 747 -162 q 552 -149 621 -162 q 400 -111 483 -135 q 331 -94 344 -97 l 331 -92 q 511 -40 425 -76 q 668 61 597 -4 q 782 228 739 126 q 825 467 825 329 q 799 651 825 561 q 723 815 774 742 q 599 931 672 889 q 433 974 525 974 q 278 937 349 974 q 156 833 207 900 q 76 674 104 765 q 49 474 49 582 q 72 300 49 386 q 142 144 96 214 q 253 34 188 75 q 401 -7 319 -7 q 426 -6 411 -7 q 444 -6 439 -6 q 481 -1 469 -3 l 483 -4 q 369 -46 426 -32 q 211 -78 313 -60 l 176 -83 l 124 -160 l 138 -183 q 231 -172 199 -172 q 303 -181 265 -172 q 399 -208 342 -190 q 537 -247 479 -233 q 661 -260 594 -260 q 785 -241 733 -260 q 894 -185 838 -222 l 925 -117 m 183 522 q 249 800 183 696 q 425 904 314 904 q 534 869 485 904 q 618 769 583 833 q 672 621 653 706 q 690 440 690 536 q 633 148 690 254 q 456 42 575 42 q 338 78 389 42 q 252 181 286 115 q 201 333 218 246 q 183 522 183 421 z "},"R":{"ha":746,"x_min":35,"x_max":738,"o":"m 146 164 q 131 69 146 90 q 65 47 115 47 l 35 10 l 44 -7 q 115 -1 81 -3 q 207 0 149 0 q 325 -6 242 0 q 347 -7 340 -7 l 378 31 l 368 47 q 313 51 332 47 q 284 67 294 56 q 270 101 274 79 q 267 164 267 124 l 267 460 q 372 433 331 460 q 442 353 414 406 q 491 229 471 300 q 544 17 511 158 l 547 6 l 561 -7 q 583 -4 563 -7 q 643 0 622 0 q 689 -4 660 0 l 707 -7 l 738 31 l 728 47 q 672 66 690 49 q 638 138 653 83 l 628 171 q 593 278 608 233 q 556 364 578 322 q 503 439 535 406 q 429 492 472 472 q 499 517 467 503 q 561 559 532 532 q 608 630 590 586 q 626 736 626 674 q 576 901 626 846 q 406 956 525 956 q 304 953 369 956 q 206 949 235 949 q 101 953 168 949 q 65 956 78 956 l 35 918 l 44 901 q 128 881 111 901 q 146 785 146 861 l 146 164 m 267 893 l 342 893 q 453 851 414 893 q 492 713 492 810 q 476 615 492 653 q 431 558 460 578 q 363 530 403 538 q 267 522 322 522 l 267 893 z "},"S":{"ha":592,"x_min":43,"x_max":538,"o":"m 439 713 l 490 761 q 476 843 481 803 q 471 936 471 883 l 456 942 q 370 966 406 958 q 288 974 335 974 q 124 901 182 974 q 65 718 65 829 q 81 622 65 664 q 124 551 97 581 q 182 499 151 521 q 260 449 213 478 q 330 404 303 424 q 381 360 357 385 q 418 301 404 335 q 432 225 432 268 q 394 93 432 142 q 276 44 357 44 q 201 67 232 44 q 151 128 169 90 q 124 207 133 165 q 113 289 115 249 l 93 299 l 43 249 l 46 228 q 53 150 53 181 q 46 46 53 104 q 160 -6 96 14 q 286 -25 225 -25 q 396 1 349 -25 q 475 68 443 26 q 522 160 507 110 q 538 263 538 211 q 521 363 538 319 q 476 439 504 407 q 415 494 447 471 q 335 549 383 518 q 207 647 249 603 q 165 765 165 692 q 196 865 165 826 q 285 904 226 904 q 349 887 324 904 q 390 842 375 869 q 411 785 404 814 q 421 724 418 757 l 439 713 z "},"T":{"ha":721,"x_min":22,"x_max":699,"o":"m 300 164 q 283 69 300 92 q 210 47 265 47 l 179 10 l 189 -7 q 231 -4 203 -7 q 360 0 308 0 q 483 -6 406 0 q 511 -7 492 -6 l 542 31 l 532 47 q 441 67 461 47 q 421 164 421 88 l 421 886 q 532 875 493 886 q 590 839 571 864 q 617 773 610 814 q 629 651 625 732 l 646 635 l 699 685 q 683 818 688 757 q 678 956 678 879 q 354 949 501 949 q 43 956 214 949 q 39 799 43 865 q 22 651 35 733 l 39 635 l 92 685 q 110 800 100 763 q 139 856 119 838 q 193 881 158 875 q 300 886 228 886 l 300 164 z "},"U":{"ha":875,"x_min":31,"x_max":842,"o":"m 731 754 q 747 873 731 846 q 811 901 763 900 l 842 939 l 832 956 q 711 949 763 949 q 583 956 657 949 l 553 918 l 563 901 q 644 874 625 900 q 664 754 664 847 l 664 372 q 659 246 664 299 q 635 147 654 193 q 576 73 617 101 q 468 44 535 44 q 358 71 400 44 q 296 142 317 97 q 269 241 275 186 q 263 372 263 296 l 263 785 q 277 881 263 860 q 343 901 292 901 l 374 939 l 364 956 q 319 953 361 956 q 201 949 242 949 q 97 953 164 949 q 61 956 74 956 l 31 918 l 40 901 q 124 881 107 901 q 142 785 142 861 l 142 372 q 151 215 142 282 q 188 94 160 149 q 276 7 217 39 q 432 -25 336 -25 q 592 8 531 -25 q 683 96 653 40 q 722 217 713 151 q 731 372 731 283 l 731 754 z "},"V":{"ha":797,"x_min":17,"x_max":779,"o":"m 449 -25 q 489 153 465 65 q 544 347 513 242 l 679 801 q 709 883 697 867 q 749 901 721 899 l 779 939 l 769 956 q 656 949 707 949 q 531 956 597 949 l 500 918 l 510 901 q 584 888 561 901 q 607 835 607 874 q 602 797 607 819 q 588 742 597 775 q 583 728 583 729 l 507 468 q 460 299 489 407 q 435 207 440 229 l 432 207 q 346 482 401 328 l 246 758 q 226 851 226 810 q 244 892 226 883 q 307 901 261 901 l 338 939 l 328 956 q 186 949 251 949 q 47 956 126 949 l 17 918 l 26 901 q 53 899 44 901 q 71 886 63 896 q 89 853 79 876 q 115 781 99 829 l 289 294 q 343 127 321 201 q 382 -25 365 53 l 449 -25 z "},"W":{"ha":1106,"x_min":18,"x_max":1088,"o":"m 371 -25 q 438 269 397 107 l 546 708 l 549 708 l 686 253 l 699 210 q 764 -25 744 61 l 831 -25 q 836 7 835 -4 q 879 247 864 169 l 986 768 q 1014 878 1003 854 q 1057 901 1025 901 l 1088 939 l 1078 956 q 1049 953 1064 954 q 974 949 999 949 q 881 953 942 949 q 851 956 872 954 l 821 918 l 831 901 q 895 888 878 899 q 913 844 913 878 q 907 796 913 831 q 904 776 906 786 l 811 213 l 808 213 l 597 949 l 535 949 l 360 213 l 357 213 l 233 753 q 219 813 225 785 q 214 849 214 840 q 228 892 214 882 q 281 901 242 901 l 311 939 l 301 956 q 174 949 228 949 q 79 953 143 949 q 49 956 69 954 l 18 918 l 28 901 q 67 885 54 901 q 97 801 79 869 l 243 244 q 268 142 258 182 q 293 26 278 101 q 304 -25 296 11 l 371 -25 z "},"X":{"ha":824,"x_min":25,"x_max":801,"o":"m 168 142 q 115 66 136 82 q 56 47 93 50 l 25 10 l 35 -7 q 71 -4 56 -6 q 151 0 124 0 q 240 -4 182 0 q 271 -7 260 -7 l 301 31 l 292 47 q 235 85 235 47 q 242 113 235 96 q 263 157 250 131 l 265 163 l 394 411 l 538 149 q 567 81 567 94 q 552 53 567 60 q 503 47 538 47 l 472 10 l 482 -7 q 519 -6 507 -6 q 643 0 604 0 q 738 -4 676 0 q 771 -7 758 -7 l 801 31 l 792 47 q 728 63 747 50 q 682 132 710 76 l 467 526 l 633 811 q 666 863 653 844 q 691 889 679 881 q 715 899 703 897 q 749 901 726 901 l 779 939 l 769 956 q 733 953 768 956 q 640 949 672 949 q 550 953 610 949 q 519 956 542 954 l 489 918 l 499 901 q 543 894 532 901 q 554 863 554 888 q 547 827 554 849 q 532 790 540 806 l 432 592 l 308 818 q 289 869 289 853 q 347 901 289 901 l 378 939 l 368 956 q 325 953 364 956 q 211 949 249 949 q 108 953 174 949 q 74 956 85 956 l 43 918 l 53 901 q 120 888 99 900 q 164 833 142 876 l 357 478 l 168 142 z "},"Y":{"ha":797,"x_min":11,"x_max":785,"o":"m 343 164 q 325 69 343 92 q 249 47 307 47 l 218 10 l 228 -7 l 267 -6 q 403 0 354 0 q 533 -6 447 0 l 558 -7 l 589 31 l 579 47 q 519 51 540 47 q 485 67 497 56 q 464 164 464 88 l 464 422 l 653 811 q 678 863 669 846 q 697 888 688 879 q 719 899 707 896 q 754 901 732 901 l 785 939 l 775 956 q 704 951 742 953 q 636 949 667 949 q 549 953 607 949 q 515 956 526 956 l 485 918 l 494 901 q 558 892 542 901 q 574 849 574 882 q 557 792 574 831 q 550 775 551 778 l 424 494 l 269 799 l 268 800 q 246 861 246 843 q 263 894 246 886 q 325 901 279 901 l 356 939 l 346 956 q 304 953 332 956 q 186 949 228 949 q 79 953 149 949 q 42 956 56 956 l 11 918 l 21 901 q 77 889 61 901 q 117 831 93 876 l 343 404 l 343 164 z "},"Z":{"ha":668,"x_min":33,"x_max":608,"o":"m 33 24 l 43 -7 q 104 -4 85 -6 q 294 0 232 0 q 500 -4 363 0 q 567 -7 524 -6 q 584 160 574 81 q 608 318 594 239 l 593 329 l 539 285 q 517 172 529 214 q 484 106 504 131 q 432 72 464 82 q 349 63 400 63 l 178 63 l 582 910 l 567 956 l 506 953 q 314 949 379 949 q 136 953 254 949 q 76 956 118 954 q 56 693 76 857 l 71 679 l 125 722 q 128 744 128 739 q 140 814 133 790 q 163 854 146 838 q 217 878 181 871 q 317 886 253 886 l 444 886 l 33 24 z "},"[":{"ha":335,"x_min":79,"x_max":304,"o":"m 79 -339 l 258 -339 l 304 -294 l 290 -276 l 179 -276 l 179 886 l 258 886 l 304 931 l 290 949 l 79 949 l 79 -339 z "},"\\":{"ha":335,"x_min":42,"x_max":293,"o":"m 218 -12 l 275 -25 l 293 -12 l 117 993 l 56 1006 l 42 993 l 218 -12 z "},"]":{"ha":335,"x_min":31,"x_max":256,"o":"m 156 -276 l 76 -276 l 31 -321 l 44 -339 l 256 -339 l 256 949 l 76 949 l 31 904 l 44 886 l 156 886 l 156 -276 z "},"^":{"ha":592,"x_min":39,"x_max":553,"o":"m 39 421 l 133 421 l 296 815 l 458 421 l 553 421 l 338 949 l 254 949 l 39 421 z "},"_":{"ha":694,"x_min":0,"x_max":694,"o":"m 0 -174 l 694 -174 l 694 -104 l 0 -104 l 0 -174 z "},"`":{"ha":500,"x_min":35,"x_max":293,"o":"m 271 731 l 293 753 l 289 774 q 203 831 242 799 q 111 918 164 864 l 104 924 l 35 854 l 40 831 l 271 731 z "},"a":{"ha":540,"x_min":35,"x_max":521,"o":"m 349 -7 q 431 0 394 0 q 493 -7 463 0 l 521 31 l 513 44 q 459 64 469 44 q 449 164 449 83 l 449 469 q 422 610 449 564 q 314 656 394 656 q 230 646 272 656 q 151 616 188 636 q 93 563 115 596 q 71 488 71 531 l 71 450 l 86 439 l 197 492 q 192 529 192 514 q 211 581 192 561 q 265 601 231 601 q 329 563 310 601 q 349 436 349 524 l 349 383 q 240 374 293 383 q 140 338 186 364 q 64 265 93 313 q 35 147 35 218 q 42 86 35 117 q 67 31 50 56 q 110 -10 83 6 q 174 -25 136 -25 q 233 -10 204 -25 q 285 26 263 4 q 324 69 307 47 q 357 117 340 92 l 360 121 l 363 118 l 349 -7 m 349 289 q 307 124 349 189 q 215 58 265 58 q 153 88 172 58 q 135 161 135 118 q 156 243 135 210 q 209 297 176 276 q 278 326 242 317 q 349 338 314 336 l 349 289 z "},"b":{"ha":643,"x_min":-1,"x_max":582,"o":"m 88 251 q 85 132 88 176 q 76 40 82 88 q 196 6 121 33 q 269 -18 243 -11 q 325 -25 296 -25 q 429 2 382 -25 q 511 80 476 29 q 564 198 546 131 q 582 344 582 265 q 517 574 582 492 q 368 656 453 656 q 305 642 335 656 q 251 606 275 628 q 210 561 226 583 q 183 517 194 539 l 181 519 l 194 1006 l 26 961 l -1 924 l 7 910 q 74 892 61 910 q 88 797 88 874 l 88 251 m 188 297 q 221 497 188 422 q 331 572 254 572 q 401 548 372 572 q 446 484 429 524 q 469 397 463 444 q 476 296 476 349 q 438 103 476 178 q 324 29 399 29 q 251 54 279 29 q 210 120 224 79 q 192 204 196 161 q 188 297 188 247 z "},"c":{"ha":540,"x_min":51,"x_max":500,"o":"m 500 189 l 481 201 q 397 97 438 136 q 296 58 356 58 q 195 133 233 58 q 157 335 157 207 q 163 419 157 375 q 183 505 168 463 q 224 574 197 547 q 290 601 250 601 q 347 582 322 601 q 390 533 372 563 q 419 472 408 503 q 435 413 431 440 l 449 404 l 482 447 l 482 606 q 397 641 442 626 q 297 656 351 656 q 122 561 192 656 q 51 297 51 467 q 111 65 51 156 q 274 -25 171 -25 q 348 -11 314 -25 q 408 24 382 3 q 451 66 433 44 q 489 115 469 88 l 500 189 z "},"d":{"ha":643,"x_min":33,"x_max":611,"o":"m 428 -7 q 444 -6 439 -6 q 507 0 486 0 q 565 -4 528 0 l 583 -7 l 611 31 l 603 44 q 540 65 553 44 q 528 164 528 85 l 528 1006 l 353 961 l 325 924 l 333 910 q 385 906 368 910 q 413 892 403 903 q 425 860 422 881 q 428 797 428 839 l 428 600 l 422 604 q 353 643 382 631 q 285 656 324 656 q 175 624 222 656 q 96 537 128 592 q 49 415 64 482 q 33 275 33 347 q 90 58 33 140 q 239 -25 146 -25 q 356 19 311 -25 q 439 138 400 63 l 442 135 l 428 -7 m 139 314 q 178 524 139 446 q 293 601 218 601 q 363 579 336 601 q 404 517 390 557 q 423 429 418 478 q 428 318 428 381 q 390 130 428 201 q 281 58 353 58 q 214 79 242 58 q 169 136 186 100 q 146 217 153 172 q 139 314 139 263 z "},"e":{"ha":540,"x_min":44,"x_max":483,"o":"m 483 161 l 464 171 q 460 167 461 168 q 383 89 421 119 q 294 58 344 58 q 217 89 247 58 q 171 166 186 119 q 150 263 156 213 q 144 364 144 314 l 460 364 q 476 442 476 397 q 463 521 476 482 q 423 590 449 560 q 363 638 397 621 q 288 656 328 656 q 187 627 232 656 q 110 549 142 599 q 61 435 78 499 q 44 301 44 371 q 107 61 44 147 q 272 -25 169 -25 q 383 9 332 -25 q 471 85 435 43 l 483 161 m 150 415 q 160 478 153 446 q 181 539 167 511 q 217 584 196 567 q 268 601 239 601 q 325 583 301 601 q 361 536 349 564 q 379 478 374 508 q 385 422 385 449 l 150 415 z "},"f":{"ha":360,"x_min":8,"x_max":390,"o":"m 106 164 q 94 67 106 88 q 36 44 82 47 l 8 7 l 17 -7 q 42 -6 26 -7 q 156 0 119 0 q 253 -4 188 0 q 289 -7 286 -7 l 317 31 l 308 44 q 251 49 271 44 q 222 65 232 53 q 206 164 206 86 l 206 553 l 318 546 l 346 590 l 338 604 l 206 604 l 206 796 q 213 894 206 865 q 244 922 219 922 q 272 913 256 922 q 313 886 288 904 q 331 872 326 875 l 390 963 l 386 981 l 382 982 q 283 1006 317 1006 q 208 976 242 1006 q 152 901 175 947 q 117 805 129 854 q 106 717 106 756 l 106 604 l 36 604 l 8 560 l 17 546 l 106 553 l 106 164 z "},"g":{"ha":540,"x_min":36,"x_max":532,"o":"m 486 551 l 532 611 l 513 631 l 369 615 l 367 618 q 316 646 339 636 q 256 656 293 656 q 172 635 208 656 q 113 579 136 614 q 77 502 89 544 q 65 417 65 460 q 94 292 65 344 q 165 213 124 240 q 118 146 136 178 q 100 89 100 114 q 110 57 100 72 q 139 24 121 42 q 129 14 136 21 q 63 -68 90 -25 q 36 -171 36 -111 q 85 -290 36 -242 q 219 -339 133 -339 q 321 -321 269 -339 q 415 -269 372 -303 q 482 -185 457 -235 q 507 -74 507 -135 q 467 42 507 8 q 332 83 426 75 l 299 86 q 197 99 221 92 q 174 131 174 106 q 181 160 174 143 q 201 199 189 176 l 214 197 q 250 193 236 193 q 385 256 331 193 q 440 425 440 318 q 428 504 440 469 q 394 572 417 539 l 486 551 m 125 -140 q 136 -64 125 -96 q 169 11 147 -32 q 279 -6 211 1 q 392 -33 360 -15 q 424 -110 424 -50 q 408 -181 424 -149 q 365 -237 392 -214 q 309 -272 339 -260 q 251 -285 279 -285 q 153 -245 182 -285 q 125 -140 125 -206 m 158 442 q 183 562 158 519 q 249 604 207 604 q 321 549 294 604 q 347 403 347 493 q 323 285 347 325 q 260 244 299 244 q 184 301 210 244 q 158 442 158 357 z "},"h":{"ha":643,"x_min":10,"x_max":613,"o":"m 107 164 q 95 67 107 88 q 38 44 83 47 l 10 7 l 18 -7 q 43 -6 28 -7 q 157 0 121 0 q 242 -4 185 0 q 276 -7 261 -6 l 304 31 l 296 44 q 222 65 236 44 q 207 164 207 85 l 207 368 q 239 514 207 456 q 332 572 271 572 q 406 528 383 572 q 429 392 429 485 l 429 164 q 417 67 429 88 q 360 44 406 47 l 332 7 l 340 -7 q 365 -6 350 -7 q 479 0 443 0 q 553 -4 504 0 q 585 -7 565 -6 l 613 31 l 604 44 q 542 65 554 44 q 529 164 529 85 l 529 382 q 524 487 529 440 q 501 572 518 533 q 449 633 483 611 q 360 656 414 656 q 271 620 310 656 q 203 533 232 585 l 200 536 l 214 1006 l 46 961 l 18 922 l 26 908 q 94 890 81 908 q 107 797 107 872 l 107 164 z "},"i":{"ha":335,"x_min":26,"x_max":321,"o":"m 124 164 q 112 67 124 88 q 54 44 100 47 l 26 7 l 35 -7 q 60 -6 44 -7 q 174 0 138 0 q 258 -4 201 0 q 293 -7 278 -6 l 321 31 l 313 44 q 238 65 253 44 q 224 164 224 85 l 224 656 l 63 611 l 35 574 l 43 560 q 110 542 97 560 q 124 447 124 524 l 124 164 m 154 810 q 204 834 185 810 q 224 892 224 858 q 204 949 224 925 q 154 974 185 974 q 104 949 124 974 q 85 892 85 925 q 104 834 85 858 q 154 810 124 810 z "},"j":{"ha":308,"x_min":-81,"x_max":211,"o":"m 111 -144 q 103 -234 111 -212 q 69 -256 96 -256 q 30 -239 54 -256 q -15 -203 6 -222 l -81 -293 l -69 -312 q 18 -339 -21 -339 q 109 -307 71 -339 q 169 -224 147 -275 q 201 -112 192 -172 q 211 6 211 -53 l 211 656 l 50 611 l 22 574 l 31 560 q 98 542 85 560 q 111 447 111 524 l 111 -144 m 142 810 q 192 834 172 810 q 211 892 211 858 q 192 949 211 925 q 142 974 172 974 q 92 949 111 974 q 72 892 72 925 q 92 834 72 858 q 142 810 111 810 z "},"k":{"ha":643,"x_min":14,"x_max":621,"o":"m 111 164 q 99 67 111 88 q 42 44 88 47 l 14 7 l 22 -7 q 47 -6 32 -7 q 161 0 125 0 q 229 -4 188 0 q 268 -7 246 -6 l 296 31 l 288 44 q 224 65 238 44 q 211 164 211 86 l 211 286 l 268 349 l 394 131 q 396 128 394 129 q 414 93 407 107 q 421 75 421 79 q 409 53 421 60 q 376 44 397 47 l 349 7 l 357 -7 q 385 -6 364 -7 q 488 0 453 0 q 564 -4 514 0 q 593 -7 583 -7 l 621 31 l 613 44 q 579 47 592 44 q 557 59 567 50 q 537 85 547 68 q 506 138 526 101 l 499 149 l 335 422 l 419 517 q 455 556 442 543 q 481 575 468 568 q 510 584 493 582 q 557 586 526 586 l 585 624 l 576 638 q 554 636 569 638 q 450 631 483 631 q 351 635 417 631 l 319 638 l 292 600 l 300 586 q 345 579 333 586 q 357 554 357 572 q 351 534 357 544 q 332 507 344 524 q 326 500 326 500 l 207 354 l 204 357 l 218 1006 l 50 961 l 22 924 l 31 910 q 98 892 85 910 q 111 797 111 874 l 111 164 z "},"l":{"ha":335,"x_min":15,"x_max":310,"o":"m 113 164 q 101 67 113 88 q 43 44 89 47 l 15 7 l 24 -7 q 49 -6 33 -7 q 163 0 126 0 q 247 -4 190 0 q 282 -7 267 -6 l 310 31 l 301 44 q 227 65 242 44 q 213 164 213 85 l 213 1006 l 51 961 l 24 924 l 32 910 q 99 892 86 910 q 113 797 113 874 l 113 164 z "},"m":{"ha":978,"x_min":26,"x_max":951,"o":"m 124 164 q 112 67 124 88 q 54 44 100 47 l 26 7 l 35 -7 q 60 -6 44 -7 q 174 0 138 0 q 258 -4 201 0 q 293 -7 278 -6 l 321 31 l 313 44 q 238 65 253 44 q 224 164 224 85 l 224 368 q 256 514 224 456 q 349 572 288 572 q 423 528 400 572 q 446 392 446 485 l 446 164 q 434 67 446 88 q 376 44 422 47 l 349 7 l 357 -7 q 382 -6 367 -7 q 496 0 460 0 q 578 -4 526 0 q 615 -7 600 -6 l 643 31 l 635 44 q 560 65 575 44 q 546 164 546 85 l 546 382 q 580 515 546 458 q 671 572 614 572 q 745 528 722 572 q 768 392 768 485 l 768 164 q 756 67 768 88 q 699 44 744 47 l 671 7 l 679 -7 q 704 -6 689 -7 q 818 0 782 0 q 892 -4 843 0 q 924 -7 904 -6 l 951 31 l 943 44 q 881 65 893 44 q 868 164 868 85 l 868 382 q 863 487 868 440 q 840 572 857 533 q 788 633 822 611 q 699 656 753 656 q 608 620 649 656 q 532 529 568 585 q 479 622 515 589 q 376 656 443 656 q 288 619 328 656 q 213 528 249 582 l 210 531 l 224 656 l 63 611 l 35 574 l 43 560 q 110 542 97 560 q 124 447 124 524 l 124 164 z "},"n":{"ha":643,"x_min":18,"x_max":621,"o":"m 115 164 q 103 67 115 88 q 46 44 92 47 l 18 7 l 26 -7 q 51 -6 36 -7 q 165 0 129 0 q 250 -4 193 0 q 285 -7 269 -6 l 313 31 l 304 44 q 230 65 244 44 q 215 164 215 85 l 215 368 q 247 514 215 456 q 340 572 279 572 q 415 528 392 572 q 438 392 438 485 l 438 164 q 426 67 438 88 q 368 44 414 47 l 340 7 l 349 -7 q 374 -6 358 -7 q 488 0 451 0 q 561 -4 513 0 q 593 -7 574 -6 l 621 31 l 613 44 q 550 65 563 44 q 538 164 538 85 l 538 382 q 532 487 538 440 q 509 572 526 533 q 457 633 492 611 q 368 656 422 656 q 280 619 319 656 q 204 528 240 582 l 201 531 l 215 656 l 54 611 l 26 574 l 35 560 q 102 542 89 560 q 115 447 115 524 l 115 164 z "},"o":{"ha":592,"x_min":47,"x_max":543,"o":"m 304 -25 q 476 67 410 -25 q 543 311 543 158 q 467 566 543 476 q 281 656 392 656 q 113 562 179 656 q 47 310 47 468 q 63 185 47 246 q 110 78 78 125 q 191 3 142 31 q 304 -25 240 -25 m 153 349 q 285 601 153 601 q 361 570 331 601 q 408 489 392 539 q 431 383 425 439 q 438 271 438 326 q 403 90 438 151 q 310 29 369 29 q 234 60 265 29 q 185 140 203 92 q 160 243 167 189 q 153 349 153 297 z "},"p":{"ha":643,"x_min":10,"x_max":599,"o":"m 107 -175 q 95 -272 107 -251 q 38 -294 83 -293 l 10 -332 l 18 -346 q 43 -344 28 -346 q 157 -339 121 -339 q 265 -343 194 -339 q 304 -346 290 -346 l 332 -308 l 324 -294 q 260 -290 282 -294 q 226 -274 238 -286 q 210 -239 214 -261 q 207 -175 207 -217 l 207 25 q 273 -12 239 1 q 343 -25 307 -25 q 528 76 457 -25 q 599 350 599 176 q 543 570 599 485 q 396 656 488 656 q 288 619 329 656 q 201 517 246 583 l 196 508 l 193 511 l 207 656 l 46 611 l 18 574 l 26 560 q 94 542 81 560 q 107 447 107 524 l 107 -175 m 207 307 q 246 503 207 435 q 357 572 285 572 q 462 498 431 572 q 493 290 493 424 q 454 101 493 174 q 346 29 415 29 q 276 53 304 29 q 233 117 249 76 q 213 204 218 157 q 207 307 207 251 z "},"q":{"ha":643,"x_min":46,"x_max":624,"o":"m 440 -175 q 424 -272 440 -251 q 343 -294 408 -293 l 315 -332 l 324 -346 q 351 -344 332 -346 q 490 -339 449 -339 q 564 -343 515 -339 q 596 -346 576 -344 l 624 -308 l 615 -294 q 553 -274 565 -294 q 540 -175 540 -254 l 540 453 q 544 527 540 496 q 554 599 547 558 l 558 621 l 544 631 q 519 615 538 626 q 475 594 486 594 q 436 611 465 594 q 369 644 401 632 q 293 656 338 656 q 190 626 236 656 q 112 544 144 596 q 63 427 79 493 q 46 290 46 361 q 105 57 46 139 q 257 -25 164 -25 q 366 15 321 -25 q 438 115 411 56 l 440 115 l 440 -175 m 151 315 q 193 521 151 440 q 307 601 235 601 q 405 540 369 601 q 440 350 440 479 q 404 132 440 206 q 300 58 368 58 q 188 131 225 58 q 151 315 151 203 z "},"r":{"ha":463,"x_min":15,"x_max":447,"o":"m 113 164 q 101 67 113 88 q 43 44 89 47 l 15 7 l 24 -7 q 49 -6 33 -7 q 163 0 126 0 q 247 -4 190 0 q 282 -7 267 -6 l 310 31 l 301 44 q 227 65 242 44 q 213 164 213 85 l 213 331 q 221 400 213 363 q 244 472 229 438 q 276 528 258 507 q 314 550 294 550 q 348 538 329 550 q 386 508 367 526 l 447 593 q 439 601 444 596 q 386 642 408 628 q 336 656 364 656 q 265 607 296 656 q 201 475 235 558 l 199 478 l 213 656 l 51 611 l 24 574 l 32 560 q 99 542 86 560 q 113 447 113 524 l 113 164 z "},"s":{"ha":463,"x_min":47,"x_max":426,"o":"m 346 457 l 389 494 q 383 554 385 525 q 382 624 382 583 l 372 628 q 247 656 289 656 q 114 605 164 656 q 64 478 64 554 q 76 405 64 435 q 110 355 89 375 q 154 323 132 335 q 215 294 176 311 q 310 241 279 268 q 340 160 340 214 q 315 65 340 101 q 235 29 290 29 q 178 47 201 29 q 142 92 156 64 q 121 148 128 119 q 108 213 114 176 l 86 222 l 47 171 q 54 109 53 140 q 56 31 56 78 q 138 -8 89 10 q 231 -25 188 -25 q 374 37 321 -25 q 426 186 426 99 q 413 260 426 229 q 379 312 400 292 q 334 344 358 332 q 274 371 310 356 q 181 423 211 397 q 150 501 150 449 q 170 574 150 546 q 231 601 190 601 q 294 571 275 601 q 325 486 313 540 q 328 474 326 478 l 346 457 z "},"t":{"ha":360,"x_min":-8,"x_max":321,"o":"m 317 50 l 307 65 q 257 58 282 58 q 196 77 207 58 q 185 154 185 96 l 185 553 l 293 546 l 321 590 l 313 604 l 185 604 l 185 865 l 164 881 l 85 783 l 85 604 l 19 604 l -8 560 l 0 546 l 85 553 l 85 118 q 90 60 85 85 q 108 17 94 36 q 147 -14 121 -3 q 217 -25 174 -25 q 264 -19 247 -25 l 317 50 z "},"u":{"ha":643,"x_min":21,"x_max":611,"o":"m 428 -7 q 444 -6 432 -7 q 504 0 488 0 q 564 -4 524 0 l 583 -7 l 611 31 l 603 44 q 540 65 553 44 q 528 164 528 85 l 528 656 l 367 611 l 339 574 l 347 560 q 415 542 401 560 q 428 447 428 524 l 428 289 q 422 207 428 247 q 401 133 415 167 q 364 78 386 99 q 310 58 342 58 q 257 76 278 58 q 226 124 236 94 q 213 183 217 153 q 210 247 210 214 l 210 656 l 49 611 l 21 574 l 29 560 q 97 542 83 560 q 110 447 110 524 l 110 200 q 124 89 110 133 q 160 19 138 44 q 211 -15 183 -6 q 271 -25 239 -25 q 331 -11 304 -25 q 378 24 358 3 q 410 68 397 46 q 439 121 424 90 l 442 118 l 428 -7 z "},"v":{"ha":617,"x_min":10,"x_max":611,"o":"m 347 -25 q 403 169 372 81 l 500 464 q 524 531 514 507 q 543 567 535 556 q 560 581 551 578 q 583 586 568 585 l 583 586 l 611 624 l 603 638 q 589 636 597 638 q 501 631 529 631 q 428 635 476 631 q 400 638 401 638 l 372 600 l 381 586 q 430 576 418 583 q 442 540 442 569 q 433 500 442 531 l 432 492 l 335 129 l 332 129 l 204 504 q 194 550 194 529 q 213 577 194 568 q 256 586 232 586 l 283 624 l 275 638 q 240 635 263 638 q 139 631 175 631 q 61 636 115 631 q 38 638 46 638 l 10 600 l 18 586 q 59 566 46 581 q 92 500 72 551 l 239 119 q 289 -25 265 51 l 347 -25 z "},"w":{"ha":900,"x_min":13,"x_max":886,"o":"m 265 -25 l 324 -25 l 444 454 l 447 454 l 596 -25 l 654 -25 l 788 486 q 815 564 803 547 q 858 586 828 581 l 886 624 l 878 638 l 853 636 q 772 631 797 631 q 685 636 744 631 q 665 638 675 636 l 638 600 l 646 586 q 706 578 690 586 q 721 543 721 569 q 718 515 721 533 q 717 501 717 501 l 646 139 l 643 139 l 489 631 l 431 631 l 310 139 l 307 139 l 199 515 q 193 550 193 531 q 206 578 193 571 q 244 586 218 586 l 272 624 l 264 638 q 238 636 256 638 q 154 631 181 631 q 40 638 103 631 l 13 600 l 21 586 q 65 567 53 585 q 100 481 78 550 l 265 -25 z "},"x":{"ha":565,"x_min":10,"x_max":560,"o":"m 104 99 q 74 61 88 72 q 38 44 61 50 l 10 7 l 18 -7 q 43 -6 29 -6 q 122 0 100 0 q 215 -7 171 0 l 243 31 l 235 44 q 193 53 207 47 q 179 74 179 60 q 194 114 179 88 l 265 249 l 343 114 q 346 108 344 110 q 360 69 360 82 q 351 53 360 58 q 325 44 342 47 l 297 7 l 306 -7 l 333 -4 q 419 0 390 0 q 485 -4 440 0 q 532 -7 517 -7 l 560 31 l 551 44 q 495 59 513 44 q 444 133 478 74 l 328 339 l 444 531 q 478 573 464 564 q 522 586 492 582 l 550 624 l 542 638 q 514 635 529 636 q 446 631 468 631 q 379 635 424 631 q 353 638 354 638 l 325 600 l 333 586 q 381 558 381 586 q 367 521 381 547 l 363 513 l 296 393 l 217 533 q 206 565 206 553 q 219 582 206 578 q 257 586 233 586 l 285 624 l 276 638 l 246 635 q 146 631 179 631 q 47 638 100 631 l 19 600 l 28 586 q 76 570 61 585 q 119 506 92 556 l 235 303 l 104 99 z "},"y":{"ha":617,"x_min":3,"x_max":610,"o":"m 222 -131 q 185 -214 201 -182 q 153 -263 169 -246 q 118 -287 138 -281 q 71 -294 99 -294 l 43 -332 l 51 -346 q 82 -344 74 -344 q 204 -339 165 -339 q 322 -344 251 -339 l 339 -346 l 367 -308 l 358 -294 q 283 -287 299 -294 q 267 -247 267 -281 q 281 -181 267 -229 q 311 -86 294 -133 l 504 501 q 536 570 522 557 q 582 586 550 583 l 610 624 l 601 638 q 546 635 583 638 q 474 631 499 631 q 394 635 446 631 l 363 638 l 335 600 l 343 586 q 410 574 393 586 q 426 518 426 563 q 422 483 426 503 q 410 429 418 463 l 408 425 l 328 146 l 325 146 l 168 638 q 99 631 131 631 q 31 638 58 631 l 3 600 l 11 586 q 63 572 49 586 q 100 496 78 557 l 278 7 l 222 -131 z "},"z":{"ha":489,"x_min":29,"x_max":461,"o":"m 29 28 l 40 0 l 435 0 q 461 235 442 93 l 449 246 l 399 199 q 367 86 388 114 q 283 58 347 58 l 147 58 l 443 600 l 435 631 l 64 631 q 56 532 63 581 q 39 424 50 483 l 51 410 l 101 449 l 101 449 q 135 548 117 524 q 213 572 153 572 l 326 572 l 29 28 z "},"{":{"ha":592,"x_min":67,"x_max":474,"o":"m 474 -343 q 363 -272 401 -326 q 325 -154 325 -218 q 335 -36 325 -114 q 342 24 339 -7 q 344 74 344 56 q 323 165 344 125 q 268 234 301 206 q 203 280 235 263 q 132 314 171 297 l 129 315 l 133 317 q 204 350 172 333 q 269 394 236 367 q 323 463 301 422 q 344 557 344 504 q 342 606 344 575 q 335 667 339 638 q 325 785 325 744 q 363 903 325 849 q 474 974 401 957 l 474 1008 q 369 988 422 1007 q 274 938 317 969 q 206 863 232 906 q 181 772 181 821 q 197 639 181 722 q 204 604 199 633 q 219 508 219 536 q 176 398 219 443 q 67 332 132 353 l 67 299 q 175 231 131 279 q 219 122 219 183 q 204 26 219 94 q 197 -8 199 -3 q 181 -142 181 -92 q 206 -233 181 -190 q 274 -307 232 -275 q 369 -358 317 -339 q 474 -378 422 -376 l 474 -343 z "},"|":{"ha":463,"x_min":190,"x_max":274,"o":"m 190 -339 l 274 -339 l 274 949 l 190 949 l 190 -339 z "},"}":{"ha":592,"x_min":118,"x_max":525,"o":"m 118 -378 q 222 -358 169 -376 q 318 -307 275 -339 q 386 -233 361 -275 q 411 -142 411 -190 q 394 -8 411 -92 q 388 26 393 -3 q 372 122 372 94 q 417 231 372 183 q 525 299 461 279 l 525 332 q 416 398 460 353 q 372 508 372 443 q 388 604 372 536 q 394 639 393 633 q 411 772 411 722 q 386 863 411 821 q 318 938 361 906 q 222 988 275 969 q 118 1008 169 1007 l 118 974 q 228 903 190 957 q 267 785 267 849 q 257 667 267 744 q 250 606 253 638 q 247 557 247 575 q 269 463 247 504 q 323 394 290 422 q 387 350 356 367 q 458 317 418 333 l 463 315 l 460 314 q 390 281 424 299 q 324 234 357 263 q 269 165 290 206 q 247 74 247 125 q 250 24 247 56 q 257 -36 253 -7 q 267 -154 267 -114 q 228 -272 267 -218 q 118 -343 190 -326 l 118 -378 z "},"~":{"ha":1003,"x_min":124,"x_max":879,"o":"m 238 188 q 240 259 238 224 q 253 332 243 294 q 288 394 264 369 q 349 419 311 419 q 403 392 383 419 q 450 303 424 364 q 485 228 469 258 q 526 172 501 199 q 586 128 550 144 q 671 111 622 111 q 777 142 735 111 q 841 223 819 172 q 871 334 863 274 q 879 465 879 394 l 765 465 q 763 386 765 421 q 751 315 761 351 q 721 256 742 279 q 667 233 700 233 q 603 264 626 233 q 550 360 579 294 q 515 432 531 404 q 478 485 500 460 q 423 526 456 511 q 347 542 390 542 q 235 508 279 542 q 166 422 190 475 q 133 309 142 369 q 124 188 124 249 l 238 188 z "},"‚":{"ha":335,"x_min":82,"x_max":232,"o":"m 96 -229 l 151 -187 l 232 136 l 214 153 l 115 75 q 104 -72 113 -4 q 82 -211 96 -139 l 96 -229 z "},"ƒ":{"ha":592,"x_min":15,"x_max":572,"o":"m 15 -200 l 42 -219 l 124 -168 l 296 579 l 404 572 l 446 617 l 438 631 l 307 631 q 331 733 319 688 q 359 822 343 778 q 394 894 375 867 q 436 922 414 922 q 455 917 444 922 q 483 901 465 913 q 499 892 493 896 l 572 968 l 563 993 l 558 994 q 492 1006 515 1006 q 392 968 438 1006 q 314 873 347 931 q 258 753 281 815 q 221 631 236 690 l 125 631 l 83 586 l 92 572 l 208 579 l 15 -200 z "},"„":{"ha":514,"x_min":86,"x_max":417,"o":"m 100 -229 l 156 -187 l 236 136 l 218 153 l 119 75 q 108 -72 117 -4 q 86 -211 100 -139 l 100 -229 m 281 -229 l 336 -187 l 417 136 l 399 153 l 300 75 q 289 -72 297 -4 q 267 -211 281 -139 l 281 -229 z "},"…":{"ha":1003,"x_min":93,"x_max":910,"o":"m 168 0 q 223 28 203 0 q 243 93 243 56 q 223 159 243 132 q 168 186 203 186 q 113 159 133 186 q 93 93 93 132 q 113 28 93 56 q 168 0 133 0 m 501 0 q 556 28 536 0 q 576 93 576 56 q 556 159 576 132 q 501 186 536 186 q 447 159 467 186 q 426 93 426 132 q 447 28 426 56 q 501 0 467 0 m 835 0 q 890 28 869 0 q 910 93 910 56 q 890 159 910 132 q 835 186 869 186 q 780 159 800 186 q 760 93 760 132 q 780 28 760 56 q 835 0 800 0 z "},"†":{"ha":592,"x_min":86,"x_max":504,"o":"m 269 -225 l 321 -225 l 321 53 q 322 189 321 132 q 327 293 324 246 q 338 389 331 340 q 356 490 344 438 q 336 544 343 518 q 321 619 329 571 q 390 609 357 618 q 464 585 422 600 q 486 576 486 576 l 504 590 l 504 711 l 486 725 l 474 721 q 390 694 422 703 q 321 682 357 685 q 333 801 322 739 q 367 924 344 863 l 353 949 l 238 949 l 224 924 q 258 801 246 864 q 269 682 269 738 q 104 725 197 689 l 86 711 l 86 590 l 104 576 q 190 607 153 596 q 269 619 226 618 q 258 549 265 576 q 235 490 250 522 q 251 390 244 438 q 263 293 258 342 q 268 188 267 244 q 269 53 269 131 l 269 -225 z "},"‡":{"ha":592,"x_min":86,"x_max":504,"o":"m 269 -225 l 321 -225 l 321 353 q 390 342 357 351 q 464 318 422 333 q 486 310 486 310 l 504 324 l 504 444 l 486 458 l 474 454 q 390 427 422 436 q 321 415 357 418 q 334 474 326 451 q 356 518 342 496 q 336 560 343 540 q 321 619 329 581 q 390 609 357 618 q 464 585 422 600 q 486 576 486 576 l 504 590 l 504 711 l 486 725 l 474 721 q 390 694 422 703 q 321 682 357 685 q 333 801 322 739 q 367 924 344 863 l 353 949 l 238 949 l 224 924 q 258 801 246 864 q 269 682 269 738 q 104 725 197 689 l 86 711 l 86 590 l 104 576 q 190 607 153 596 q 269 619 226 618 q 257 564 264 585 q 235 518 250 543 q 258 472 250 494 q 269 415 265 449 q 104 458 197 422 l 86 444 l 86 324 l 104 310 q 190 340 153 329 q 269 353 226 351 l 269 -225 z "},"ˆ":{"ha":500,"x_min":74,"x_max":426,"o":"m 74 757 l 108 731 l 250 872 l 392 731 l 426 757 l 426 785 q 410 801 418 793 q 334 883 364 849 q 279 961 304 918 l 221 961 q 153 870 188 911 q 74 785 118 829 l 74 757 z "},"‰":{"ha":1260,"x_min":29,"x_max":1229,"o":"m 174 -12 l 185 -25 l 242 -12 l 692 914 l 683 932 l 632 925 q 625 921 628 922 q 536 872 581 890 q 426 853 492 853 q 354 862 386 853 q 286 888 322 871 q 275 893 275 893 q 227 915 246 908 q 188 922 208 922 q 74 850 118 922 q 29 642 29 778 q 74 435 29 507 q 188 363 118 363 q 301 435 257 363 q 346 642 346 507 q 318 817 346 722 q 376 801 347 807 q 432 796 406 796 q 583 838 500 796 l 586 835 l 174 -12 m 115 642 q 135 812 115 753 q 188 871 154 871 q 240 812 221 871 q 260 642 260 753 q 240 473 260 532 q 188 414 221 414 q 135 473 154 414 q 115 642 115 532 m 675 -25 q 789 47 744 -25 q 833 254 833 119 q 789 463 833 390 q 675 535 744 535 q 561 463 606 535 q 517 254 517 390 q 561 47 517 119 q 675 -25 606 -25 m 603 254 q 622 424 603 365 q 675 483 642 483 q 728 424 708 483 q 747 254 747 365 q 728 85 747 144 q 675 26 708 26 q 622 85 642 26 q 603 254 603 144 m 1071 -25 q 1185 47 1142 -25 q 1229 254 1229 118 q 1185 463 1229 392 q 1071 535 1142 535 q 956 463 1000 535 q 913 254 913 392 q 956 47 913 118 q 1071 -25 1000 -25 m 999 254 q 1018 424 999 365 q 1071 483 1038 483 q 1124 424 1104 483 q 1143 254 1143 365 q 1124 85 1143 144 q 1071 26 1104 26 q 1018 85 1038 26 q 999 254 999 144 z "},"Š":{"ha":592,"x_min":43,"x_max":538,"o":"m 325 1049 q 380 1126 350 1092 q 456 1208 410 1161 q 472 1225 464 1217 l 472 1253 l 438 1279 l 296 1138 l 154 1279 l 119 1253 l 119 1225 q 199 1140 164 1181 q 267 1049 233 1099 l 325 1049 m 439 713 l 490 761 q 476 843 481 803 q 471 936 471 883 l 456 942 q 370 966 406 958 q 288 974 335 974 q 124 901 182 974 q 65 718 65 829 q 81 622 65 664 q 124 551 97 581 q 182 499 151 521 q 260 449 213 478 q 330 404 303 424 q 381 360 357 385 q 418 301 404 335 q 432 225 432 268 q 394 93 432 142 q 276 44 357 44 q 201 67 232 44 q 151 128 169 90 q 124 207 133 165 q 113 289 115 249 l 93 299 l 43 249 l 46 228 q 53 150 53 181 q 46 46 53 104 q 160 -6 96 14 q 286 -25 225 -25 q 396 1 349 -25 q 475 68 443 26 q 522 160 507 110 q 538 263 538 211 q 521 363 538 319 q 476 439 504 407 q 415 494 447 471 q 335 549 383 518 q 207 647 249 603 q 165 765 165 692 q 196 865 165 826 q 285 904 226 904 q 349 887 324 904 q 390 842 375 869 q 411 785 404 814 q 421 724 418 757 l 439 713 z "},"‹":{"ha":308,"x_min":39,"x_max":246,"o":"m 233 67 l 246 76 l 239 100 q 202 217 219 174 q 144 315 185 260 q 206 424 185 372 q 246 554 228 475 l 233 564 l 174 544 l 171 538 q 138 465 149 489 q 113 417 126 440 q 83 371 100 394 q 39 315 65 347 q 83 251 67 276 q 114 203 100 226 q 141 154 128 179 q 174 86 154 129 l 233 67 z "},"Œ":{"ha":1157,"x_min":49,"x_max":1115,"o":"m 1100 329 l 1046 286 l 1044 279 q 1024 174 1033 210 q 997 113 1015 139 q 945 75 979 88 q 853 63 911 63 q 760 83 779 63 q 740 164 740 104 l 740 464 l 833 464 q 902 432 888 464 q 917 307 917 400 l 935 297 l 983 328 q 976 493 976 415 q 978 583 976 542 q 983 675 981 625 l 967 685 l 917 654 q 903 550 917 574 q 833 526 889 526 l 740 526 l 740 886 l 814 886 q 929 873 886 886 q 992 836 972 860 q 1019 782 1013 813 q 1032 694 1026 751 l 1047 683 l 1101 721 q 1082 956 1082 857 q 910 951 1000 953 q 740 949 821 949 q 618 960 690 949 l 607 961 q 543 971 572 968 q 478 974 514 974 q 298 934 378 974 q 163 826 218 894 q 78 667 107 757 q 49 475 49 576 q 80 285 49 375 q 169 124 111 194 q 303 15 226 54 q 468 -25 379 -25 q 590 -15 515 -25 l 608 -12 q 740 0 683 0 q 911 -3 797 0 l 968 -4 l 1082 -7 q 1115 315 1094 146 l 1100 329 m 619 164 q 600 67 619 90 q 513 44 581 44 q 375 80 436 44 q 271 180 314 115 q 206 329 228 244 q 183 511 183 414 q 256 797 183 690 q 467 904 328 904 q 585 876 550 904 q 619 785 619 849 l 619 164 z "},"‘":{"ha":335,"x_min":92,"x_max":242,"o":"m 92 608 l 110 592 l 208 669 q 219 816 211 749 q 242 956 228 883 l 228 974 l 172 932 l 92 608 z "},"’":{"ha":335,"x_min":94,"x_max":244,"o":"m 108 592 l 164 633 l 244 957 l 226 974 l 128 896 q 117 749 125 817 q 94 610 108 682 l 108 592 z "},"“":{"ha":514,"x_min":82,"x_max":413,"o":"m 82 608 l 100 592 l 199 669 q 210 816 201 749 q 232 956 218 883 l 218 974 l 163 932 l 82 608 m 263 608 l 281 592 l 379 669 q 390 816 382 749 q 413 956 399 883 l 399 974 l 343 932 l 263 608 z "},"”":{"ha":514,"x_min":88,"x_max":418,"o":"m 101 592 l 157 633 l 238 957 l 219 974 l 121 896 q 110 749 118 817 q 88 610 101 682 l 101 592 m 282 592 l 338 633 l 418 957 l 400 974 l 301 896 q 290 749 299 817 q 268 610 282 682 l 282 592 z "},"•":{"ha":592,"x_min":44,"x_max":547,"o":"m 296 224 q 393 243 347 224 q 474 297 439 263 q 528 378 508 332 q 547 475 547 424 q 528 572 547 526 q 474 653 508 618 q 393 707 439 688 q 296 726 347 726 q 199 707 244 726 q 118 653 153 688 q 64 572 83 618 q 44 475 44 526 q 64 378 44 424 q 118 297 83 332 q 199 243 153 263 q 296 224 244 224 z "},"–":{"ha":592,"x_min":56,"x_max":535,"o":"m 56 324 l 67 308 l 471 308 l 535 376 l 528 392 l 118 392 l 56 324 z "},"—":{"ha":1003,"x_min":56,"x_max":946,"o":"m 56 324 l 67 308 l 882 308 l 946 376 l 939 392 l 118 392 l 56 324 z "},"˜":{"ha":500,"x_min":64,"x_max":436,"o":"m 64 768 l 111 756 l 114 760 q 142 798 131 786 q 172 810 154 810 q 239 788 189 810 q 299 764 274 772 q 347 756 324 756 q 396 790 381 756 l 436 888 l 389 899 q 363 856 376 868 q 329 844 349 844 q 253 869 310 844 q 200 891 222 883 q 160 899 178 899 q 107 864 122 899 l 64 768 z "},"™":{"ha":849,"x_min":6,"x_max":835,"o":"m 140 658 q 126 608 140 618 q 75 594 113 597 q 65 593 71 593 l 65 568 l 278 568 l 278 593 q 268 594 275 593 q 221 608 232 597 q 210 658 210 618 l 210 922 q 278 895 261 914 q 313 828 294 876 l 319 807 l 344 807 l 338 949 l 17 949 l 6 807 l 29 807 l 35 821 q 72 890 53 869 q 140 922 90 911 l 140 658 m 426 658 q 415 610 426 621 q 369 594 404 600 l 363 593 l 363 568 l 514 568 l 514 593 l 513 593 q 469 608 479 597 q 458 658 458 618 l 458 900 l 461 900 l 563 568 l 585 568 l 703 913 l 706 913 l 706 658 q 693 608 706 618 q 643 593 681 599 l 640 593 l 640 568 l 828 568 l 828 593 l 825 593 q 784 607 793 597 q 775 658 775 617 l 775 867 q 785 912 775 903 q 829 924 794 921 l 835 924 l 835 949 l 685 949 l 597 697 l 594 697 l 518 949 l 379 949 l 379 924 q 386 924 382 924 q 420 914 414 921 q 426 874 426 907 l 426 658 z "},"š":{"ha":463,"x_min":47,"x_max":426,"o":"m 275 731 q 330 808 300 774 q 406 890 360 843 q 422 907 414 899 l 422 935 l 388 961 l 246 819 l 104 961 l 69 935 l 69 907 q 149 822 114 863 q 217 731 183 781 l 275 731 m 346 457 l 389 494 q 383 554 385 525 q 382 624 382 583 l 372 628 q 247 656 289 656 q 114 605 164 656 q 64 478 64 554 q 76 405 64 435 q 110 355 89 375 q 154 323 132 335 q 215 294 176 311 q 310 241 279 268 q 340 160 340 214 q 315 65 340 101 q 235 29 290 29 q 178 47 201 29 q 142 92 156 64 q 121 148 128 119 q 108 213 114 176 l 86 222 l 47 171 q 54 109 53 140 q 56 31 56 78 q 138 -8 89 10 q 231 -25 188 -25 q 374 37 321 -25 q 426 186 426 99 q 413 260 426 229 q 379 312 400 292 q 334 344 358 332 q 274 371 310 356 q 181 423 211 397 q 150 501 150 449 q 170 574 150 546 q 231 601 190 601 q 294 571 275 601 q 325 486 313 540 q 328 474 326 478 l 346 457 z "},"›":{"ha":308,"x_min":63,"x_max":269,"o":"m 75 67 l 135 86 q 168 156 154 129 q 194 203 182 182 q 225 251 207 224 q 269 315 243 278 q 225 372 242 349 q 195 417 208 394 q 172 463 182 440 q 138 538 161 486 l 135 544 l 75 564 l 63 554 q 102 424 81 475 q 164 315 124 372 q 106 217 124 260 q 69 100 89 174 l 63 76 l 75 67 z "},"œ":{"ha":926,"x_min":50,"x_max":876,"o":"m 876 161 l 857 171 q 853 167 854 168 q 776 89 814 119 q 688 58 738 58 q 610 87 640 58 q 565 160 581 115 q 544 257 550 206 q 539 364 539 308 l 853 364 q 869 442 869 397 q 856 521 869 482 q 816 590 842 560 q 756 638 790 621 q 681 656 721 656 q 565 619 618 656 q 481 519 513 582 q 283 656 411 656 q 116 562 182 656 q 50 310 50 468 q 65 185 50 246 q 113 78 81 125 q 194 3 144 31 q 307 -25 243 -25 q 404 6 360 -25 q 481 93 449 36 q 665 -25 547 -25 q 776 9 725 -25 q 864 85 828 43 l 876 161 m 156 349 q 288 601 156 601 q 363 570 333 601 q 410 489 393 539 q 433 383 426 439 q 439 271 439 326 q 405 90 439 151 q 313 29 371 29 q 237 60 268 29 q 188 140 206 92 q 163 243 169 189 q 156 349 156 297 m 544 415 q 554 478 547 446 q 576 539 561 511 q 611 584 590 567 q 661 601 632 601 q 718 583 694 601 q 754 536 742 564 q 772 478 767 508 q 778 422 778 449 l 544 415 z "},"Ÿ":{"ha":797,"x_min":11,"x_max":785,"o":"m 293 1067 q 340 1090 322 1067 q 357 1146 357 1113 q 340 1202 357 1179 q 293 1225 322 1225 q 247 1202 264 1225 q 229 1146 229 1179 q 247 1090 229 1113 q 293 1067 264 1067 m 504 1067 q 551 1090 533 1067 q 568 1146 568 1113 q 551 1202 568 1179 q 504 1225 533 1225 q 458 1202 475 1225 q 440 1146 440 1179 q 458 1090 440 1113 q 504 1067 475 1067 m 343 164 q 325 69 343 92 q 249 47 307 47 l 218 10 l 228 -7 l 267 -6 q 403 0 354 0 q 533 -6 447 0 l 558 -7 l 589 31 l 579 47 q 519 51 540 47 q 485 67 497 56 q 464 164 464 88 l 464 422 l 653 811 q 678 863 669 846 q 697 888 688 879 q 719 899 707 896 q 754 901 732 901 l 785 939 l 775 956 q 704 951 742 953 q 636 949 667 949 q 549 953 607 949 q 515 956 526 956 l 485 918 l 494 901 q 558 892 542 901 q 574 849 574 882 q 557 792 574 831 q 550 775 551 778 l 424 494 l 269 799 l 268 800 q 246 861 246 843 q 263 894 246 886 q 325 901 279 901 l 356 939 l 346 956 q 304 953 332 956 q 186 949 228 949 q 79 953 149 949 q 42 956 56 956 l 11 918 l 21 901 q 77 889 61 901 q 117 831 93 876 l 343 404 l 343 164 z "},"¡":{"ha":335,"x_min":97,"x_max":236,"o":"m 121 -339 l 229 -281 q 203 78 213 -74 q 194 378 194 231 l 179 392 l 136 367 q 129 126 135 254 q 113 -203 124 -3 q 106 -324 113 -207 l 121 -339 m 167 494 q 217 519 197 494 q 236 575 236 543 q 217 631 236 607 q 167 656 197 656 q 117 631 136 656 q 97 575 97 607 q 117 519 97 543 q 167 494 136 494 z "},"¢":{"ha":592,"x_min":88,"x_max":504,"o":"m 290 29 l 349 29 l 349 153 q 430 191 399 168 q 499 260 461 214 l 504 340 l 476 347 q 418 256 443 283 q 349 222 393 228 l 349 681 q 408 641 390 675 q 435 546 426 607 l 460 538 l 494 582 q 489 704 489 636 q 461 714 483 707 q 349 743 392 740 l 349 835 l 290 835 l 290 743 q 222 715 257 736 q 156 657 186 693 q 106 569 125 621 q 88 453 88 518 q 108 324 88 379 q 160 232 129 268 q 226 177 192 196 q 290 153 260 158 l 290 29 m 290 236 q 227 311 253 253 q 201 464 201 369 q 228 615 201 561 q 290 681 256 668 l 290 236 z "},"£":{"ha":592,"x_min":65,"x_max":567,"o":"m 101 -14 q 138 9 119 3 q 183 15 157 15 q 244 10 213 15 q 319 -7 275 4 q 431 -25 400 -25 q 510 -10 461 -25 l 567 165 l 554 182 l 501 158 l 500 153 q 475 100 489 117 q 428 83 461 83 q 367 92 410 83 q 298 102 328 99 q 228 107 268 106 q 275 200 258 144 q 292 325 292 256 q 288 394 292 364 l 388 394 l 415 432 l 407 446 l 286 446 q 271 524 282 467 q 243 664 253 608 q 233 746 233 719 q 315 864 233 864 q 374 835 354 864 q 394 761 394 806 q 390 707 394 735 l 475 667 l 492 676 q 496 722 496 700 q 482 796 496 760 q 444 861 468 832 q 387 906 419 890 q 319 922 354 922 q 178 857 238 922 q 119 685 119 792 q 131 585 119 635 q 168 461 143 536 q 172 446 169 454 l 96 446 l 68 408 l 76 394 l 188 394 q 208 279 208 343 q 194 174 208 218 q 158 100 181 129 q 65 54 101 86 l 101 -14 z "},"¤":{"ha":694,"x_min":17,"x_max":676,"o":"m 19 165 l 61 124 l 153 215 q 244 167 192 185 q 347 149 296 149 q 540 215 451 149 l 632 124 l 674 165 l 581 258 q 629 345 613 294 q 646 447 646 396 q 630 553 646 503 q 579 639 614 603 l 676 736 l 632 779 l 536 683 q 445 731 494 714 q 347 747 396 747 q 248 731 297 747 q 157 683 199 714 l 61 779 l 17 736 l 114 639 q 65 549 82 600 q 47 447 47 499 q 63 344 47 394 q 113 258 79 293 l 19 165 m 106 447 q 124 540 106 496 q 176 618 143 585 q 254 670 210 651 q 347 689 299 689 q 440 670 396 689 q 517 617 483 651 q 569 540 550 583 q 588 447 588 496 q 569 355 588 399 q 517 278 550 311 q 440 226 483 244 q 347 207 396 207 q 255 226 299 207 q 177 278 211 244 q 124 355 143 311 q 106 447 106 399 z "},"¥":{"ha":592,"x_min":8,"x_max":582,"o":"m 213 801 q 193 864 193 851 q 244 901 193 897 l 272 942 l 264 956 q 153 949 204 949 q 93 951 125 949 q 36 956 61 953 l 8 915 l 17 901 q 69 883 51 901 q 111 796 86 865 l 201 543 l 31 543 l 31 488 l 221 488 l 242 429 l 242 343 l 31 343 l 31 288 l 242 288 l 242 128 q 229 63 242 78 q 178 47 217 47 l 147 10 l 157 -7 q 189 -4 178 -6 q 290 0 253 0 q 390 -6 325 0 q 406 -7 401 -7 l 436 31 l 426 47 q 357 61 372 47 q 342 128 342 75 l 342 288 l 553 288 l 553 343 l 342 343 l 342 421 l 367 488 l 553 488 l 553 543 l 388 543 l 482 797 q 515 876 503 858 q 554 901 528 894 l 582 942 l 574 956 q 481 949 522 949 q 385 956 440 949 l 357 915 l 365 901 q 413 889 399 897 q 426 853 426 881 q 418 822 426 844 q 414 808 415 814 l 315 515 l 313 515 l 213 801 z "},"¦":{"ha":463,"x_min":190,"x_max":274,"o":"m 190 433 l 274 433 l 274 949 l 190 949 l 190 433 m 190 -339 l 274 -339 l 274 176 l 190 176 l 190 -339 z "},"§":{"ha":592,"x_min":72,"x_max":524,"o":"m 444 729 l 471 772 q 450 938 456 853 q 378 965 410 956 q 313 974 347 974 q 142 902 211 974 q 72 701 72 831 q 114 516 72 614 q 235 271 156 418 q 328 88 299 156 q 358 -29 358 21 q 338 -97 358 -67 q 286 -126 317 -126 q 240 -107 261 -126 q 203 -55 219 -87 q 177 16 188 -22 q 161 93 167 54 l 122 106 l 92 61 q 103 -149 103 -15 q 193 -193 147 -176 q 286 -210 239 -210 q 457 -128 390 -210 q 524 78 524 -46 q 480 287 524 182 q 356 540 436 392 q 269 708 296 647 q 242 817 242 769 q 256 869 242 849 q 301 890 271 890 q 368 845 342 890 q 413 738 394 800 l 444 729 m 417 3 q 383 147 417 69 q 281 344 349 224 q 168 564 206 478 q 131 731 131 650 q 143 814 131 778 q 174 874 156 850 q 212 911 192 897 q 250 931 232 925 l 253 928 l 251 926 q 203 878 222 906 q 183 797 183 850 q 215 660 183 732 q 310 475 246 589 q 426 247 386 340 q 465 54 465 153 q 452 -45 465 -3 q 417 -115 439 -87 q 370 -156 394 -142 q 322 -172 346 -169 l 319 -169 q 389 -108 361 -150 q 417 3 417 -67 z "},"¨":{"ha":500,"x_min":81,"x_max":419,"o":"m 144 749 q 191 772 174 749 q 208 828 208 794 q 191 884 208 861 q 144 907 174 907 q 98 884 115 907 q 81 828 81 861 q 98 772 81 794 q 144 749 115 749 m 356 749 q 402 772 385 749 q 419 828 419 794 q 402 884 419 861 q 356 907 385 907 q 309 884 326 907 q 292 828 292 861 q 309 772 292 794 q 356 749 326 749 z "},"©":{"ha":694,"x_min":22,"x_max":672,"o":"m 468 607 q 460 575 465 590 q 445 544 456 560 q 417 517 435 528 q 371 506 399 506 q 294 547 321 506 q 268 661 268 589 q 294 787 268 743 q 367 831 319 831 q 428 799 406 831 q 469 718 450 768 l 471 713 l 492 717 l 492 857 l 471 857 q 465 850 468 854 q 447 838 456 838 q 419 844 439 838 q 385 855 400 851 q 349 858 371 858 q 288 844 318 858 q 233 802 258 829 q 192 738 207 775 q 178 660 178 701 q 228 526 178 579 q 357 474 279 474 q 428 487 400 474 q 469 521 456 500 q 488 560 483 542 q 497 604 493 579 l 497 607 l 468 607 m 347 350 q 472 374 413 350 q 576 440 531 397 q 647 541 621 483 q 672 663 672 599 q 647 783 672 726 q 576 883 621 840 q 472 950 531 926 q 347 974 413 974 q 223 950 282 974 q 119 883 164 926 q 48 783 74 840 q 22 663 22 726 q 48 542 22 599 q 119 441 74 485 q 224 374 165 397 q 347 350 283 350 m 71 663 q 92 765 71 717 q 153 849 114 813 q 242 905 192 885 q 347 925 293 925 q 453 905 403 925 q 542 849 504 885 q 602 765 581 813 q 624 663 624 717 q 602 560 624 608 q 542 476 581 513 q 453 419 503 439 q 347 399 403 399 q 241 419 292 399 q 152 475 190 439 q 92 560 114 511 q 71 663 71 608 z "},"ª":{"ha":592,"x_min":115,"x_max":469,"o":"m 342 471 l 353 472 q 444 476 408 476 l 469 511 l 460 524 q 413 542 424 526 q 403 613 403 557 l 403 788 q 385 888 403 853 q 310 922 368 922 q 261 918 288 922 q 208 901 235 914 q 163 862 182 889 q 144 792 144 835 l 161 783 l 238 817 q 247 855 238 840 q 281 869 257 869 q 324 840 315 869 q 333 740 333 810 q 257 732 294 740 q 188 705 219 724 q 135 655 156 686 q 115 581 115 624 q 147 494 115 531 q 228 457 178 457 q 303 493 276 457 q 343 578 331 529 l 346 575 l 342 471 m 197 593 q 237 663 197 642 q 333 688 276 685 q 326 638 332 664 q 311 588 321 611 q 287 550 301 565 q 251 535 272 535 q 212 551 226 535 q 197 593 197 568 z "},"«":{"ha":489,"x_min":50,"x_max":438,"o":"m 244 67 l 257 76 l 250 100 q 213 217 231 174 q 156 315 196 260 q 217 424 196 372 q 257 554 239 475 l 244 564 l 185 544 l 182 538 q 149 465 160 489 q 124 417 138 440 q 94 371 111 394 q 50 315 76 347 q 94 251 78 276 q 125 203 111 226 q 152 154 139 179 q 185 86 165 129 l 244 67 m 425 67 l 438 76 l 431 100 q 394 217 411 174 q 336 315 376 260 q 398 424 376 372 q 438 554 419 475 l 425 564 l 365 544 l 363 538 q 329 465 340 489 q 305 417 318 440 q 274 371 292 394 q 231 315 257 347 q 275 251 258 276 q 306 203 292 226 q 333 154 319 179 q 365 86 346 129 l 425 67 z "},"¬":{"ha":1003,"x_min":154,"x_max":849,"o":"m 765 76 l 849 76 l 849 472 l 154 472 l 154 389 l 765 389 l 765 76 z "},"­":{"ha":1003,"x_min":154,"x_max":849,"o":"m 154 285 l 849 285 l 849 368 l 154 368 l 154 285 z "},"−":{"ha":1003,"x_min":154,"x_max":849,"o":"m 154 285 l 849 285 l 849 368 l 154 368 l 154 285 z "},"®":{"ha":694,"x_min":22,"x_max":672,"o":"m 238 572 q 228 528 238 538 q 186 517 218 519 l 186 490 l 367 490 l 367 517 q 358 518 363 517 q 321 531 328 522 q 314 575 314 539 l 314 660 l 329 660 q 375 640 363 660 q 396 579 388 619 q 421 512 406 535 q 478 489 436 489 q 534 521 517 489 q 551 586 551 553 l 522 586 q 518 557 522 572 q 500 542 514 542 q 485 549 490 542 q 475 574 481 556 q 453 626 467 603 q 406 668 439 649 l 410 669 q 480 697 453 679 q 507 758 507 715 q 468 829 507 811 q 356 847 429 847 l 186 847 l 186 821 l 193 819 q 229 809 221 817 q 238 771 238 801 l 238 572 m 314 768 q 322 810 314 799 q 364 821 331 821 q 409 803 396 821 q 422 751 422 785 q 401 702 422 715 q 343 689 381 689 l 314 689 l 314 768 m 347 350 q 472 374 413 350 q 576 440 531 397 q 647 541 621 483 q 672 663 672 599 q 647 783 672 726 q 576 883 621 840 q 472 950 531 926 q 347 974 413 974 q 223 950 282 974 q 119 883 164 926 q 48 783 74 840 q 22 663 22 726 q 48 542 22 599 q 119 441 74 485 q 224 374 165 397 q 347 350 283 350 m 71 663 q 92 765 71 717 q 153 849 114 813 q 242 905 192 885 q 347 925 293 925 q 453 905 403 925 q 542 849 504 885 q 602 765 581 813 q 624 663 624 717 q 602 560 624 608 q 542 476 581 513 q 453 419 503 439 q 347 399 403 399 q 242 419 292 399 q 153 476 192 439 q 92 560 114 513 q 71 663 71 608 z "},"¯":{"ha":500,"x_min":94,"x_max":404,"o":"m 94 731 l 404 731 l 404 814 l 94 814 l 94 731 z "},"°":{"ha":592,"x_min":85,"x_max":507,"o":"m 296 500 q 445 561 383 500 q 507 711 507 622 q 445 861 507 800 q 296 922 383 922 q 146 861 207 922 q 85 711 85 800 q 146 561 85 622 q 296 500 207 500 m 151 711 q 194 813 151 771 q 296 856 236 856 q 398 813 356 856 q 440 711 440 771 q 398 609 440 651 q 296 567 356 567 q 194 609 236 567 q 151 711 151 651 z "},"±":{"ha":1003,"x_min":154,"x_max":849,"o":"m 154 -194 l 849 -194 l 849 -111 l 154 -111 l 154 -194 m 460 -25 l 543 -25 l 543 285 l 849 285 l 849 368 l 543 368 l 543 678 l 460 678 l 460 368 l 154 368 l 154 285 l 460 285 l 460 -25 z "},"²":{"ha":463,"x_min":61,"x_max":400,"o":"m 74 375 l 363 375 q 394 508 371 419 l 400 528 l 386 543 l 343 528 q 308 467 326 483 q 232 451 289 451 l 157 451 q 239 550 181 485 q 344 683 308 629 q 379 793 379 738 q 342 887 379 851 q 239 922 304 922 q 135 888 176 922 q 94 800 94 854 l 94 767 l 108 757 l 178 785 l 178 818 q 194 854 178 838 q 233 871 210 871 q 276 852 258 871 q 293 801 293 833 q 278 741 293 776 q 239 667 263 706 q 188 587 215 628 q 122 494 160 546 q 61 407 78 433 l 74 375 z "},"³":{"ha":463,"x_min":75,"x_max":379,"o":"m 115 754 l 175 785 q 174 810 174 794 q 221 871 174 871 q 275 796 275 871 q 244 710 275 738 q 174 674 214 682 l 163 639 l 176 626 q 258 600 224 625 q 293 517 293 575 q 274 448 293 478 q 217 418 256 418 q 171 440 190 418 q 151 500 151 461 q 154 525 151 508 q 156 531 156 529 l 146 538 l 75 485 q 126 402 88 440 q 226 364 164 364 q 336 410 293 364 q 379 524 379 456 q 348 618 379 583 q 268 667 317 653 q 335 720 310 690 q 361 800 361 750 q 325 890 361 857 q 235 922 289 922 q 188 916 213 922 q 143 896 164 910 q 109 856 122 882 q 96 796 96 831 q 99 763 96 785 l 115 754 z "},"´":{"ha":500,"x_min":228,"x_max":486,"o":"m 228 753 l 250 731 l 481 831 l 486 854 l 417 924 l 411 918 q 317 830 356 863 q 232 774 279 797 l 228 753 z "},"µ":{"ha":643,"x_min":25,"x_max":615,"o":"m 114 -268 l 124 -278 l 214 -254 l 214 0 q 285 -25 240 -25 q 340 -12 315 -25 q 383 23 364 1 q 415 67 401 44 q 442 117 428 89 q 443 121 443 119 l 446 118 l 432 -7 q 449 -6 436 -7 q 508 0 492 0 q 568 -4 528 0 l 588 -7 l 615 31 l 607 44 q 544 65 557 44 q 532 164 532 85 l 532 656 l 371 611 l 343 574 l 351 560 q 419 542 406 560 q 432 447 432 524 l 432 289 q 426 207 432 247 q 405 133 419 167 q 368 78 390 99 q 314 58 346 58 q 236 97 258 58 q 214 206 214 136 l 214 656 l 53 611 l 25 574 l 33 560 q 101 542 88 560 q 114 447 114 524 l 114 -268 z "},"¶":{"ha":592,"x_min":0,"x_max":576,"o":"m 307 -308 l 358 -308 l 358 886 l 363 888 q 428 894 406 894 l 428 -308 l 479 -308 l 479 894 l 576 894 l 576 949 l 481 949 q 328 938 404 949 q 176 894 251 928 q 50 792 100 861 q 0 614 0 724 q 30 477 1 535 q 103 384 58 419 q 200 329 149 349 q 307 300 251 310 l 307 -308 z "},"·":{"ha":592,"x_min":221,"x_max":371,"o":"m 296 356 q 350 384 329 356 q 371 449 371 413 q 350 513 371 485 q 296 542 329 542 q 242 513 263 542 q 221 449 221 485 q 242 384 221 413 q 296 356 263 356 z "},"∙":{"ha":592,"x_min":221,"x_max":371,"o":"m 296 356 q 350 384 329 356 q 371 449 371 413 q 350 513 371 485 q 296 542 329 542 q 242 513 263 542 q 221 449 221 485 q 242 384 221 413 q 296 356 263 356 z "},"¸":{"ha":500,"x_min":171,"x_max":364,"o":"m 308 10 l 256 10 l 189 -108 l 217 -146 q 258 -128 240 -128 q 297 -175 297 -128 q 260 -221 297 -221 q 214 -192 231 -221 l 200 -186 l 171 -214 q 215 -258 192 -242 q 271 -274 238 -274 q 335 -246 306 -274 q 364 -174 364 -218 q 339 -108 364 -135 q 282 -82 314 -82 q 256 -85 272 -82 l 308 10 z "},"¹":{"ha":463,"x_min":104,"x_max":357,"o":"m 190 504 q 181 435 190 449 q 135 422 172 422 l 107 385 l 115 371 l 150 372 q 222 375 199 375 q 329 371 274 375 l 357 408 l 349 422 q 285 435 297 422 q 274 504 274 449 l 274 900 l 239 922 q 186 883 214 899 q 119 851 158 867 l 104 818 l 115 807 q 132 810 121 808 q 153 813 143 813 q 183 800 176 813 q 190 753 190 788 l 190 504 z "},"º":{"ha":592,"x_min":117,"x_max":474,"o":"m 296 457 q 425 524 376 457 q 474 689 474 592 q 425 855 474 788 q 296 922 376 922 q 166 854 215 922 q 117 689 117 786 q 167 524 117 592 q 296 457 217 457 m 201 689 q 225 821 201 771 q 296 871 249 871 q 366 821 343 871 q 389 689 389 771 q 366 558 389 608 q 296 508 343 508 q 225 558 249 508 q 201 689 201 608 z "},"»":{"ha":489,"x_min":51,"x_max":439,"o":"m 64 67 l 124 86 q 157 156 143 129 q 183 203 171 182 q 214 251 196 224 q 258 315 232 278 q 214 372 231 349 q 184 417 197 394 q 160 463 171 440 q 126 538 150 486 l 124 544 l 64 564 l 51 554 q 91 424 69 475 q 153 315 113 372 q 95 217 113 260 q 58 100 78 174 l 51 76 l 64 67 m 244 67 l 304 86 q 338 156 324 129 q 364 203 351 182 q 394 251 376 224 q 439 315 413 278 q 394 372 411 349 q 365 417 378 394 q 341 463 351 440 q 307 538 331 486 l 304 544 l 244 564 l 232 554 q 272 424 250 475 q 333 315 293 372 q 276 217 293 260 q 239 100 258 174 l 232 76 l 244 67 z "},"¼":{"ha":1003,"x_min":125,"x_max":906,"o":"m 740 -12 l 753 -25 l 810 0 l 810 103 l 869 103 l 906 213 l 892 225 l 858 217 q 840 183 850 193 q 810 172 831 172 l 810 542 l 753 542 l 540 156 l 550 103 l 740 103 l 740 -12 m 738 417 l 740 417 l 740 172 l 617 172 l 738 417 m 211 504 q 202 435 211 449 q 156 422 193 422 l 128 385 l 136 371 l 171 372 q 243 375 219 375 q 350 371 294 375 l 378 408 l 369 422 q 306 435 318 422 q 294 504 294 449 l 294 900 l 260 922 q 207 883 235 899 q 140 851 179 867 l 125 818 l 136 807 q 153 810 142 808 q 174 813 164 813 q 204 800 197 813 q 211 753 211 788 l 211 504 m 254 -11 l 267 -25 l 321 -18 l 776 922 l 767 938 l 710 928 l 254 -11 z "},"½":{"ha":1003,"x_min":85,"x_max":917,"o":"m 171 504 q 162 435 171 449 q 115 422 153 422 l 88 385 l 96 371 l 131 372 q 203 375 179 375 q 310 371 254 375 l 338 408 l 329 422 q 266 435 278 422 q 254 504 254 449 l 254 900 l 219 922 q 167 883 194 899 q 100 851 139 867 l 85 818 l 96 807 q 113 810 101 808 q 133 813 124 813 q 164 800 157 813 q 171 753 171 788 l 171 504 m 211 -11 l 224 -25 l 278 -18 l 733 922 l 724 938 l 667 928 l 211 -11 m 590 0 l 879 0 q 911 133 888 44 l 917 153 l 903 168 l 860 153 q 824 92 843 108 q 749 76 806 76 l 674 76 q 756 175 697 110 q 860 308 825 254 q 896 418 896 363 q 858 512 896 476 q 756 547 821 547 q 652 513 693 547 q 611 425 611 479 l 611 392 l 625 382 l 694 410 l 694 443 q 710 479 694 463 q 750 496 726 496 q 792 477 775 496 q 810 426 810 458 q 794 366 810 401 q 756 292 779 331 q 704 212 732 253 q 639 119 676 171 q 578 32 594 58 l 590 0 z "},"¾":{"ha":1003,"x_min":90,"x_max":911,"o":"m 746 -12 l 758 -25 l 815 0 l 815 103 l 875 103 l 911 213 l 897 225 l 864 217 q 846 183 856 193 q 815 172 836 172 l 815 542 l 758 542 l 546 156 l 556 103 l 746 103 l 746 -12 m 743 417 l 746 417 l 746 172 l 622 172 l 743 417 m 131 754 l 190 785 q 189 810 189 794 q 201 853 189 836 q 236 869 214 869 q 290 796 290 869 q 260 710 290 738 q 189 674 229 682 l 178 639 l 192 626 q 274 600 239 625 q 308 517 308 575 q 290 450 308 478 q 232 422 271 422 q 186 443 206 422 q 167 500 167 464 q 169 525 167 508 q 171 531 171 529 l 161 538 l 90 485 q 141 402 103 440 q 242 364 179 364 q 351 410 308 364 q 394 524 394 456 q 363 618 394 583 q 283 667 332 653 q 351 720 325 690 q 376 800 376 750 q 340 890 376 857 q 250 922 304 922 q 203 916 228 922 q 158 896 179 910 q 124 856 138 882 q 111 796 111 831 q 114 763 111 785 l 131 754 m 258 -11 l 271 -25 l 325 -18 l 781 922 l 771 938 l 714 928 l 258 -11 z "},"¿":{"ha":463,"x_min":43,"x_max":442,"o":"m 442 -96 l 418 -81 l 350 -118 l 350 -154 q 328 -249 350 -214 q 254 -285 307 -285 q 176 -243 204 -285 q 149 -118 149 -201 q 169 -8 149 -56 q 233 107 190 40 q 305 238 281 181 q 329 378 329 296 l 318 392 l 263 367 q 233 224 263 282 q 147 94 204 165 q 69 -21 94 28 q 43 -137 43 -69 q 100 -285 43 -232 q 247 -339 157 -339 q 386 -289 331 -339 q 442 -146 442 -239 l 442 -96 m 288 494 q 338 519 318 494 q 357 575 357 543 q 338 631 357 607 q 288 656 318 656 q 238 631 257 656 q 218 575 218 607 q 238 519 218 543 q 288 494 257 494 z "},"À":{"ha":797,"x_min":15,"x_max":782,"o":"m 419 1049 l 442 1071 l 438 1092 q 351 1149 390 1117 q 260 1236 313 1182 l 253 1242 l 183 1172 l 189 1149 l 419 1049 m 143 190 q 117 111 128 139 q 97 70 107 83 q 77 53 88 57 q 46 47 67 49 l 15 10 l 25 -7 q 58 -4 47 -6 q 158 0 125 0 q 243 -4 186 0 q 275 -7 272 -7 l 306 31 l 296 47 q 235 60 254 47 q 215 117 215 74 q 219 157 215 132 q 231 206 224 182 l 264 338 l 506 338 l 553 167 q 565 92 565 119 q 549 58 565 68 q 507 47 533 47 l 476 10 l 486 -7 q 522 -4 510 -6 q 628 0 593 0 q 715 -4 657 0 q 751 -7 735 -6 l 782 31 l 772 47 q 734 54 747 50 q 710 72 721 58 q 690 111 700 85 q 667 190 681 138 l 446 967 l 421 974 l 364 933 l 143 190 m 381 786 l 383 786 l 488 400 l 281 400 l 381 786 z "},"Á":{"ha":797,"x_min":15,"x_max":782,"o":"m 376 1071 l 399 1049 l 629 1149 l 635 1172 l 565 1242 l 560 1236 q 466 1148 504 1181 q 381 1092 428 1115 l 376 1071 m 143 190 q 117 111 128 139 q 97 70 107 83 q 77 53 88 57 q 46 47 67 49 l 15 10 l 25 -7 q 58 -4 47 -6 q 158 0 125 0 q 243 -4 186 0 q 275 -7 272 -7 l 306 31 l 296 47 q 235 60 254 47 q 215 117 215 74 q 219 157 215 132 q 231 206 224 182 l 264 338 l 506 338 l 553 167 q 565 92 565 119 q 549 58 565 68 q 507 47 533 47 l 476 10 l 486 -7 q 522 -4 510 -6 q 628 0 593 0 q 715 -4 657 0 q 751 -7 735 -6 l 782 31 l 772 47 q 734 54 747 50 q 710 72 721 58 q 690 111 700 85 q 667 190 681 138 l 446 967 l 421 974 l 364 933 l 143 190 m 381 786 l 383 786 l 488 400 l 281 400 l 381 786 z "},"Â":{"ha":797,"x_min":15,"x_max":782,"o":"m 236 1075 l 271 1049 l 413 1190 l 554 1049 l 589 1075 l 589 1103 q 572 1119 581 1111 q 497 1201 526 1167 q 442 1279 467 1236 l 383 1279 q 315 1188 350 1229 q 236 1103 281 1147 l 236 1075 m 143 190 q 117 111 128 139 q 97 70 107 83 q 77 53 88 57 q 46 47 67 49 l 15 10 l 25 -7 q 58 -4 47 -6 q 158 0 125 0 q 243 -4 186 0 q 275 -7 272 -7 l 306 31 l 296 47 q 235 60 254 47 q 215 117 215 74 q 219 157 215 132 q 231 206 224 182 l 264 338 l 506 338 l 553 167 q 565 92 565 119 q 549 58 565 68 q 507 47 533 47 l 476 10 l 486 -7 q 522 -4 510 -6 q 628 0 593 0 q 715 -4 657 0 q 751 -7 735 -6 l 782 31 l 772 47 q 734 54 747 50 q 710 72 721 58 q 690 111 700 85 q 667 190 681 138 l 446 967 l 421 974 l 364 933 l 143 190 m 381 786 l 383 786 l 488 400 l 281 400 l 381 786 z "},"Ã":{"ha":797,"x_min":15,"x_max":782,"o":"m 226 1086 l 274 1074 l 276 1078 q 305 1116 293 1104 q 335 1128 317 1128 q 401 1106 351 1128 q 461 1082 436 1090 q 510 1074 486 1074 q 558 1108 543 1074 l 599 1206 l 551 1217 q 525 1174 539 1186 q 492 1163 511 1163 q 415 1188 472 1163 q 363 1209 385 1201 q 322 1217 340 1217 q 269 1182 285 1217 l 226 1086 m 143 190 q 117 111 128 139 q 97 70 107 83 q 77 53 88 57 q 46 47 67 49 l 15 10 l 25 -7 q 58 -4 47 -6 q 158 0 125 0 q 243 -4 186 0 q 275 -7 272 -7 l 306 31 l 296 47 q 235 60 254 47 q 215 117 215 74 q 219 157 215 132 q 231 206 224 182 l 264 338 l 506 338 l 553 167 q 565 92 565 119 q 549 58 565 68 q 507 47 533 47 l 476 10 l 486 -7 q 522 -4 510 -6 q 628 0 593 0 q 715 -4 657 0 q 751 -7 735 -6 l 782 31 l 772 47 q 734 54 747 50 q 710 72 721 58 q 690 111 700 85 q 667 190 681 138 l 446 967 l 421 974 l 364 933 l 143 190 m 381 786 l 383 786 l 488 400 l 281 400 l 381 786 z "},"Ä":{"ha":797,"x_min":15,"x_max":782,"o":"m 293 1067 q 340 1090 322 1067 q 357 1146 357 1113 q 340 1202 357 1179 q 293 1225 322 1225 q 247 1202 264 1225 q 229 1146 229 1179 q 247 1090 229 1113 q 293 1067 264 1067 m 504 1067 q 551 1090 533 1067 q 568 1146 568 1113 q 551 1202 568 1179 q 504 1225 533 1225 q 458 1202 475 1225 q 440 1146 440 1179 q 458 1090 440 1113 q 504 1067 475 1067 m 143 190 q 117 111 128 139 q 97 70 107 83 q 77 53 88 57 q 46 47 67 49 l 15 10 l 25 -7 q 58 -4 47 -6 q 158 0 125 0 q 243 -4 186 0 q 275 -7 272 -7 l 306 31 l 296 47 q 235 60 254 47 q 215 117 215 74 q 219 157 215 132 q 231 206 224 182 l 264 338 l 506 338 l 553 167 q 565 92 565 119 q 549 58 565 68 q 507 47 533 47 l 476 10 l 486 -7 q 522 -4 510 -6 q 628 0 593 0 q 715 -4 657 0 q 751 -7 735 -6 l 782 31 l 772 47 q 734 54 747 50 q 710 72 721 58 q 690 111 700 85 q 667 190 681 138 l 446 967 l 421 974 l 364 933 l 143 190 m 381 786 l 383 786 l 488 400 l 281 400 l 381 786 z "},"Å":{"ha":797,"x_min":15,"x_max":782,"o":"m 399 1049 q 476 1088 444 1049 q 507 1185 507 1126 q 476 1282 507 1243 q 399 1321 444 1321 q 322 1282 353 1321 q 290 1185 290 1243 q 322 1088 290 1126 q 399 1049 354 1049 m 343 1185 q 356 1245 343 1222 q 399 1268 369 1268 q 441 1245 428 1268 q 454 1185 454 1222 q 441 1124 454 1147 q 399 1101 428 1101 q 356 1124 369 1101 q 343 1185 343 1147 m 143 190 q 117 111 128 139 q 97 70 107 83 q 77 53 88 57 q 46 47 67 49 l 15 10 l 25 -7 q 58 -4 47 -6 q 158 0 125 0 q 243 -4 186 0 q 275 -7 272 -7 l 306 31 l 296 47 q 235 60 254 47 q 215 117 215 74 q 219 157 215 132 q 231 206 224 182 l 264 338 l 506 338 l 553 167 q 565 92 565 119 q 549 58 565 68 q 507 47 533 47 l 476 10 l 486 -7 q 522 -4 510 -6 q 628 0 593 0 q 715 -4 657 0 q 751 -7 735 -6 l 782 31 l 772 47 q 734 54 747 50 q 710 72 721 58 q 690 111 700 85 q 667 190 681 138 l 446 967 l 421 974 l 364 933 l 143 190 m 381 786 l 383 786 l 488 400 l 281 400 l 381 786 z "},"Æ":{"ha":1106,"x_min":21,"x_max":1065,"o":"m 135 129 q 96 65 111 78 q 51 47 81 51 l 21 10 l 31 -7 l 50 -6 q 149 0 118 0 q 243 -4 183 0 l 281 -7 l 311 31 l 301 47 q 241 60 263 47 q 219 101 219 72 q 227 140 219 115 q 246 186 235 165 l 344 401 l 569 401 l 569 164 q 554 69 569 90 q 489 47 539 47 l 458 10 l 468 -7 q 581 -4 504 -7 q 732 0 683 0 q 904 -4 789 0 q 1032 -7 990 -7 q 1065 315 1044 146 l 1050 329 l 996 286 l 994 279 q 974 174 983 210 q 947 113 965 139 q 895 75 929 88 q 803 63 861 63 q 710 83 729 63 q 690 164 690 104 l 690 464 l 783 464 q 852 432 838 464 q 867 308 867 400 l 885 299 l 933 329 q 926 493 926 417 q 928 583 926 542 q 933 675 931 625 l 917 685 l 867 654 q 853 550 867 574 q 783 526 839 526 l 690 526 l 690 886 l 764 886 q 879 873 836 886 q 942 836 922 860 q 969 782 963 813 q 982 694 976 751 l 997 683 l 1051 721 q 1032 956 1032 857 q 894 951 967 953 q 757 949 822 949 q 538 953 683 949 l 467 956 l 438 917 l 447 900 q 481 896 469 900 q 496 876 492 892 l 135 129 m 567 890 l 569 890 l 569 464 l 372 464 l 567 890 z "},"Ç":{"ha":797,"x_min":49,"x_max":756,"o":"m 338 -108 l 365 -146 q 407 -128 389 -128 q 446 -175 446 -128 q 408 -221 446 -221 q 363 -192 379 -221 l 349 -186 l 319 -214 q 363 -258 340 -242 q 419 -274 386 -274 q 483 -246 454 -274 q 513 -174 513 -218 q 488 -108 513 -135 q 431 -82 463 -82 q 404 -85 421 -82 l 438 -25 q 564 6 508 -24 q 658 78 619 35 q 719 169 696 122 q 756 261 743 217 l 740 279 l 685 249 q 650 182 668 213 q 606 123 632 151 q 542 76 579 94 q 456 58 504 58 q 342 92 393 58 q 256 187 292 126 q 202 325 221 247 q 183 488 183 403 q 251 792 183 679 q 450 904 319 904 q 551 878 510 904 q 617 810 593 851 q 653 723 642 768 q 671 629 665 678 l 689 613 l 740 660 q 729 910 729 782 q 586 957 649 940 q 453 974 524 974 q 283 937 358 974 q 155 833 207 900 q 76 675 103 765 q 49 479 49 585 q 72 300 49 386 q 141 145 96 214 q 249 33 186 76 q 386 -22 311 -11 l 338 -108 z "},"È":{"ha":694,"x_min":43,"x_max":650,"o":"m 396 1049 l 418 1071 l 414 1092 q 328 1149 367 1117 q 236 1236 289 1182 l 229 1242 l 160 1172 l 165 1149 l 396 1049 m 154 164 q 139 69 154 90 q 74 47 124 47 l 43 10 l 53 -7 q 165 -4 89 -7 q 317 0 268 0 q 489 -4 374 0 q 617 -7 575 -7 q 650 315 629 146 l 635 329 l 581 286 l 579 279 q 559 174 568 210 q 532 113 550 139 q 480 75 514 88 q 388 63 446 63 q 294 83 314 63 q 275 164 275 104 l 275 464 l 368 464 q 437 432 422 464 q 451 308 451 400 l 469 299 l 518 329 q 511 493 511 417 q 513 583 511 542 q 518 675 515 625 l 501 685 l 451 654 q 438 550 451 574 q 368 526 424 526 l 275 526 l 275 886 l 349 886 q 464 873 421 886 q 527 836 507 860 q 554 782 547 813 q 567 694 561 751 l 582 683 l 636 721 q 617 956 617 857 q 479 951 551 953 q 342 949 407 949 q 74 956 163 949 l 43 918 l 53 901 q 137 881 119 901 q 154 785 154 861 l 154 164 z "},"É":{"ha":694,"x_min":43,"x_max":650,"o":"m 325 1071 l 347 1049 l 578 1149 l 583 1172 l 514 1242 l 508 1236 q 415 1148 453 1181 q 329 1092 376 1115 l 325 1071 m 154 164 q 139 69 154 90 q 74 47 124 47 l 43 10 l 53 -7 q 165 -4 89 -7 q 317 0 268 0 q 489 -4 374 0 q 617 -7 575 -7 q 650 315 629 146 l 635 329 l 581 286 l 579 279 q 559 174 568 210 q 532 113 550 139 q 480 75 514 88 q 388 63 446 63 q 294 83 314 63 q 275 164 275 104 l 275 464 l 368 464 q 437 432 422 464 q 451 308 451 400 l 469 299 l 518 329 q 511 493 511 417 q 513 583 511 542 q 518 675 515 625 l 501 685 l 451 654 q 438 550 451 574 q 368 526 424 526 l 275 526 l 275 886 l 349 886 q 464 873 421 886 q 527 836 507 860 q 554 782 547 813 q 567 694 561 751 l 582 683 l 636 721 q 617 956 617 857 q 479 951 551 953 q 342 949 407 949 q 74 956 163 949 l 43 918 l 53 901 q 137 881 119 901 q 154 785 154 861 l 154 164 z "},"Ê":{"ha":694,"x_min":43,"x_max":650,"o":"m 185 1075 l 219 1049 l 361 1190 l 503 1049 l 538 1075 l 538 1103 q 521 1119 529 1111 q 445 1201 475 1167 q 390 1279 415 1236 l 332 1279 q 264 1188 299 1229 q 185 1103 229 1147 l 185 1075 m 154 164 q 139 69 154 90 q 74 47 124 47 l 43 10 l 53 -7 q 165 -4 89 -7 q 317 0 268 0 q 489 -4 374 0 q 617 -7 575 -7 q 650 315 629 146 l 635 329 l 581 286 l 579 279 q 559 174 568 210 q 532 113 550 139 q 480 75 514 88 q 388 63 446 63 q 294 83 314 63 q 275 164 275 104 l 275 464 l 368 464 q 437 432 422 464 q 451 308 451 400 l 469 299 l 518 329 q 511 493 511 417 q 513 583 511 542 q 518 675 515 625 l 501 685 l 451 654 q 438 550 451 574 q 368 526 424 526 l 275 526 l 275 886 l 349 886 q 464 873 421 886 q 527 836 507 860 q 554 782 547 813 q 567 694 561 751 l 582 683 l 636 721 q 617 956 617 857 q 479 951 551 953 q 342 949 407 949 q 74 956 163 949 l 43 918 l 53 901 q 137 881 119 901 q 154 785 154 861 l 154 164 z "},"Ë":{"ha":694,"x_min":43,"x_max":650,"o":"m 242 1067 q 288 1090 271 1067 q 306 1146 306 1113 q 288 1202 306 1179 q 242 1225 271 1225 q 195 1202 213 1225 q 178 1146 178 1179 q 195 1090 178 1113 q 242 1067 213 1067 m 453 1067 q 499 1090 482 1067 q 517 1146 517 1113 q 499 1202 517 1179 q 453 1225 482 1225 q 406 1202 424 1225 q 389 1146 389 1179 q 406 1090 389 1113 q 453 1067 424 1067 m 154 164 q 139 69 154 90 q 74 47 124 47 l 43 10 l 53 -7 q 165 -4 89 -7 q 317 0 268 0 q 489 -4 374 0 q 617 -7 575 -7 q 650 315 629 146 l 635 329 l 581 286 l 579 279 q 559 174 568 210 q 532 113 550 139 q 480 75 514 88 q 388 63 446 63 q 294 83 314 63 q 275 164 275 104 l 275 464 l 368 464 q 437 432 422 464 q 451 308 451 400 l 469 299 l 518 329 q 511 493 511 417 q 513 583 511 542 q 518 675 515 625 l 501 685 l 451 654 q 438 550 451 574 q 368 526 424 526 l 275 526 l 275 886 l 349 886 q 464 873 421 886 q 527 836 507 860 q 554 782 547 813 q 567 694 561 751 l 582 683 l 636 721 q 617 956 617 857 q 479 951 551 953 q 342 949 407 949 q 74 956 163 949 l 43 918 l 53 901 q 137 881 119 901 q 154 785 154 861 l 154 164 z "},"Ì":{"ha":438,"x_min":32,"x_max":390,"o":"m 268 1049 l 290 1071 l 286 1092 q 200 1149 239 1117 q 108 1236 161 1182 l 101 1242 l 32 1172 l 38 1149 l 268 1049 m 158 164 q 143 69 158 90 q 78 47 128 47 l 47 10 l 57 -7 l 94 -4 q 218 0 171 0 q 338 -6 258 0 q 360 -7 353 -7 l 390 31 l 381 47 q 297 67 315 47 q 279 164 279 88 l 279 785 q 294 881 279 860 q 360 901 308 901 l 390 939 l 381 956 q 336 953 378 956 q 218 949 258 949 q 114 953 181 949 q 78 956 90 956 l 47 918 l 57 901 q 141 881 124 901 q 158 785 158 861 l 158 164 z "},"Í":{"ha":438,"x_min":47,"x_max":456,"o":"m 197 1071 l 219 1049 l 450 1149 l 456 1172 l 386 1242 l 381 1236 q 287 1148 325 1181 q 201 1092 249 1115 l 197 1071 m 158 164 q 143 69 158 90 q 78 47 128 47 l 47 10 l 57 -7 l 94 -4 q 218 0 171 0 q 338 -6 258 0 q 360 -7 353 -7 l 390 31 l 381 47 q 297 67 315 47 q 279 164 279 88 l 279 785 q 294 881 279 860 q 360 901 308 901 l 390 939 l 381 956 q 336 953 378 956 q 218 949 258 949 q 114 953 181 949 q 78 956 90 956 l 47 918 l 57 901 q 141 881 124 901 q 158 785 158 861 l 158 164 z "},"Î":{"ha":438,"x_min":47,"x_max":410,"o":"m 57 1075 l 92 1049 l 233 1190 l 375 1049 l 410 1075 l 410 1103 q 393 1119 401 1111 q 317 1201 347 1167 q 263 1279 288 1236 l 204 1279 q 136 1188 171 1229 q 57 1103 101 1147 l 57 1075 m 158 164 q 143 69 158 90 q 78 47 128 47 l 47 10 l 57 -7 l 94 -4 q 218 0 171 0 q 338 -6 258 0 q 360 -7 353 -7 l 390 31 l 381 47 q 297 67 315 47 q 279 164 279 88 l 279 785 q 294 881 279 860 q 360 901 308 901 l 390 939 l 381 956 q 336 953 378 956 q 218 949 258 949 q 114 953 181 949 q 78 956 90 956 l 47 918 l 57 901 q 141 881 124 901 q 158 785 158 861 l 158 164 z "},"Ï":{"ha":438,"x_min":47,"x_max":390,"o":"m 114 1067 q 160 1090 143 1067 q 178 1146 178 1113 q 160 1202 178 1179 q 114 1225 143 1225 q 67 1202 85 1225 q 50 1146 50 1179 q 67 1090 50 1113 q 114 1067 85 1067 m 325 1067 q 372 1090 354 1067 q 389 1146 389 1113 q 372 1202 389 1179 q 325 1225 354 1225 q 278 1202 296 1225 q 261 1146 261 1179 q 278 1090 261 1113 q 325 1067 296 1067 m 158 164 q 143 69 158 90 q 78 47 128 47 l 47 10 l 57 -7 l 94 -4 q 218 0 171 0 q 338 -6 258 0 q 360 -7 353 -7 l 390 31 l 381 47 q 297 67 315 47 q 279 164 279 88 l 279 785 q 294 881 279 860 q 360 901 308 901 l 390 939 l 381 956 q 336 953 378 956 q 218 949 258 949 q 114 953 181 949 q 78 956 90 956 l 47 918 l 57 901 q 141 881 124 901 q 158 785 158 861 l 158 164 z "},"Ð":{"ha":900,"x_min":35,"x_max":844,"o":"m 150 164 q 135 69 150 90 q 69 47 119 47 l 39 10 l 49 -7 l 86 -4 q 210 0 163 0 q 296 -3 238 0 q 400 -7 364 -7 q 621 35 532 -7 q 758 147 710 78 q 826 297 807 217 q 844 463 844 378 q 811 695 844 600 q 717 848 778 790 q 574 931 657 906 q 385 956 490 956 q 303 953 360 956 q 210 949 242 949 q 106 953 172 949 q 69 956 82 956 l 39 918 l 49 901 q 133 881 115 901 q 150 785 150 861 l 150 517 l 35 517 l 35 454 l 150 454 l 150 164 m 271 454 l 444 454 l 444 517 l 271 517 l 271 893 q 465 879 389 893 q 596 821 540 865 q 681 686 651 776 q 710 444 710 596 q 633 151 710 247 q 369 56 556 56 q 290 75 308 56 q 271 164 271 94 l 271 454 z "},"Ñ":{"ha":875,"x_min":31,"x_max":839,"o":"m 251 1086 l 299 1074 l 301 1078 q 330 1116 318 1104 q 360 1128 342 1128 q 426 1106 376 1128 q 486 1082 461 1090 q 535 1074 511 1074 q 583 1108 568 1074 l 624 1206 l 576 1217 q 550 1174 564 1186 q 517 1163 536 1163 q 440 1188 497 1163 q 388 1209 410 1201 q 347 1217 365 1217 q 294 1182 310 1217 l 251 1086 m 142 194 q 125 74 142 101 q 61 47 108 47 l 31 10 l 40 -7 q 74 -4 61 -6 q 175 0 140 0 q 269 -4 208 0 q 303 -7 292 -7 l 333 31 l 324 47 q 262 53 283 47 q 228 74 240 58 q 213 117 217 89 q 208 194 208 144 l 208 807 l 211 807 l 654 -15 l 728 -15 l 728 740 q 731 826 728 796 q 742 872 733 856 q 765 894 750 888 q 808 901 779 900 l 839 939 l 829 956 q 799 954 814 954 q 699 949 729 949 q 604 953 667 949 q 567 956 585 954 l 536 918 l 546 901 q 636 870 611 901 q 661 740 661 839 l 661 214 l 658 214 l 258 956 l 233 953 q 157 949 183 949 q 92 953 135 949 q 61 956 74 954 l 31 918 l 40 901 q 94 897 75 901 q 123 879 113 893 q 138 837 133 865 q 142 754 142 808 l 142 194 z "},"Ò":{"ha":875,"x_min":49,"x_max":826,"o":"m 458 1049 l 481 1071 l 476 1092 q 390 1149 429 1117 q 299 1236 351 1182 l 292 1242 l 222 1172 l 228 1149 l 458 1049 m 440 -25 q 597 13 525 -25 q 719 120 668 51 q 799 278 771 189 q 826 464 826 367 q 798 657 826 565 q 717 820 769 749 q 593 933 665 892 q 436 974 521 974 q 274 935 346 974 q 151 826 201 896 q 75 667 101 757 q 49 475 49 576 q 78 285 49 376 q 160 124 107 194 q 286 15 214 54 q 440 -25 358 -25 m 183 511 q 245 797 183 690 q 425 904 307 904 q 535 868 485 904 q 619 767 585 832 q 673 619 654 703 q 692 443 692 535 q 628 154 692 264 q 451 44 564 44 q 340 80 390 44 q 255 180 290 115 q 201 329 219 244 q 183 511 183 414 z "},"Ó":{"ha":875,"x_min":49,"x_max":826,"o":"m 415 1071 l 438 1049 l 668 1149 l 674 1172 l 604 1242 l 599 1236 q 505 1148 543 1181 q 419 1092 467 1115 l 415 1071 m 440 -25 q 597 13 525 -25 q 719 120 668 51 q 799 278 771 189 q 826 464 826 367 q 798 657 826 565 q 717 820 769 749 q 593 933 665 892 q 436 974 521 974 q 274 935 346 974 q 151 826 201 896 q 75 667 101 757 q 49 475 49 576 q 78 285 49 376 q 160 124 107 194 q 286 15 214 54 q 440 -25 358 -25 m 183 511 q 245 797 183 690 q 425 904 307 904 q 535 868 485 904 q 619 767 585 832 q 673 619 654 703 q 692 443 692 535 q 628 154 692 264 q 451 44 564 44 q 340 80 390 44 q 255 180 290 115 q 201 329 219 244 q 183 511 183 414 z "},"Ô":{"ha":875,"x_min":49,"x_max":826,"o":"m 275 1075 l 310 1049 l 451 1190 l 593 1049 l 628 1075 l 628 1103 q 611 1119 619 1111 q 535 1201 565 1167 q 481 1279 506 1236 l 422 1279 q 354 1188 389 1229 q 275 1103 319 1147 l 275 1075 m 440 -25 q 597 13 525 -25 q 719 120 668 51 q 799 278 771 189 q 826 464 826 367 q 798 657 826 565 q 717 820 769 749 q 593 933 665 892 q 436 974 521 974 q 274 935 346 974 q 151 826 201 896 q 75 667 101 757 q 49 475 49 576 q 78 285 49 376 q 160 124 107 194 q 286 15 214 54 q 440 -25 358 -25 m 183 511 q 245 797 183 690 q 425 904 307 904 q 535 868 485 904 q 619 767 585 832 q 673 619 654 703 q 692 443 692 535 q 628 154 692 264 q 451 44 564 44 q 340 80 390 44 q 255 180 290 115 q 201 329 219 244 q 183 511 183 414 z "},"Õ":{"ha":875,"x_min":49,"x_max":826,"o":"m 251 1086 l 299 1074 l 301 1078 q 330 1116 318 1104 q 360 1128 342 1128 q 426 1106 376 1128 q 486 1082 461 1090 q 535 1074 511 1074 q 583 1108 568 1074 l 624 1206 l 576 1217 q 550 1174 564 1186 q 517 1163 536 1163 q 440 1188 497 1163 q 388 1209 410 1201 q 347 1217 365 1217 q 294 1182 310 1217 l 251 1086 m 440 -25 q 597 13 525 -25 q 719 120 668 51 q 799 278 771 189 q 826 464 826 367 q 798 657 826 565 q 717 820 769 749 q 593 933 665 892 q 436 974 521 974 q 274 935 346 974 q 151 826 201 896 q 75 667 101 757 q 49 475 49 576 q 78 285 49 376 q 160 124 107 194 q 286 15 214 54 q 440 -25 358 -25 m 183 511 q 245 797 183 690 q 425 904 307 904 q 535 868 485 904 q 619 767 585 832 q 673 619 654 703 q 692 443 692 535 q 628 154 692 264 q 451 44 564 44 q 340 80 390 44 q 255 180 290 115 q 201 329 219 244 q 183 511 183 414 z "},"Ö":{"ha":875,"x_min":49,"x_max":826,"o":"m 332 1067 q 378 1090 361 1067 q 396 1146 396 1113 q 378 1202 396 1179 q 332 1225 361 1225 q 285 1202 303 1225 q 268 1146 268 1179 q 285 1090 268 1113 q 332 1067 303 1067 m 543 1067 q 590 1090 572 1067 q 607 1146 607 1113 q 590 1202 607 1179 q 543 1225 572 1225 q 497 1202 514 1225 q 479 1146 479 1179 q 497 1090 479 1113 q 543 1067 514 1067 m 440 -25 q 597 13 525 -25 q 719 120 668 51 q 799 278 771 189 q 826 464 826 367 q 798 657 826 565 q 717 820 769 749 q 593 933 665 892 q 436 974 521 974 q 274 935 346 974 q 151 826 201 896 q 75 667 101 757 q 49 475 49 576 q 78 285 49 376 q 160 124 107 194 q 286 15 214 54 q 440 -25 358 -25 m 183 511 q 245 797 183 690 q 425 904 307 904 q 535 868 485 904 q 619 767 585 832 q 673 619 654 703 q 692 443 692 535 q 628 154 692 264 q 451 44 564 44 q 340 80 390 44 q 255 180 290 115 q 201 329 219 244 q 183 511 183 414 z "},"×":{"ha":1003,"x_min":154,"x_max":849,"o":"m 211 -25 l 503 264 l 792 -25 l 849 33 l 561 324 l 849 614 l 792 669 l 503 381 l 211 669 l 154 614 l 447 324 l 154 33 l 211 -25 z "},"Ø":{"ha":875,"x_min":49,"x_max":826,"o":"m 57 -11 l 68 -25 l 126 -25 l 199 79 q 310 2 249 29 q 440 -25 372 -25 q 597 13 525 -25 q 719 120 668 51 q 799 278 771 189 q 826 464 826 367 q 798 658 826 564 q 717 821 769 751 l 815 961 l 811 974 l 744 974 l 674 872 q 565 947 625 921 q 436 974 504 974 q 274 935 346 974 q 151 826 201 896 q 75 667 101 757 q 49 475 49 576 q 77 288 49 378 q 156 131 106 199 l 57 -11 m 643 715 q 692 443 692 599 q 628 154 692 264 q 451 44 564 44 q 263 169 335 44 l 643 715 m 228 235 q 183 511 183 360 q 245 797 183 690 q 425 904 307 904 q 527 872 481 904 q 608 781 574 840 l 228 235 z "},"Ù":{"ha":875,"x_min":31,"x_max":842,"o":"m 458 1049 l 481 1071 l 476 1092 q 390 1149 429 1117 q 299 1236 351 1182 l 292 1242 l 222 1172 l 228 1149 l 458 1049 m 731 754 q 747 873 731 846 q 811 901 763 900 l 842 939 l 832 956 q 711 949 763 949 q 583 956 657 949 l 553 918 l 563 901 q 644 874 625 900 q 664 754 664 847 l 664 372 q 659 246 664 299 q 635 147 654 193 q 576 73 617 101 q 468 44 535 44 q 358 71 400 44 q 296 142 317 97 q 269 241 275 186 q 263 372 263 296 l 263 785 q 277 881 263 860 q 343 901 292 901 l 374 939 l 364 956 q 319 953 361 956 q 201 949 242 949 q 97 953 164 949 q 61 956 74 956 l 31 918 l 40 901 q 124 881 107 901 q 142 785 142 861 l 142 372 q 151 215 142 282 q 188 94 160 149 q 276 7 217 39 q 432 -25 336 -25 q 592 8 531 -25 q 683 96 653 40 q 722 217 713 151 q 731 372 731 283 l 731 754 z "},"Ú":{"ha":875,"x_min":31,"x_max":842,"o":"m 415 1071 l 438 1049 l 668 1149 l 674 1172 l 604 1242 l 599 1236 q 505 1148 543 1181 q 419 1092 467 1115 l 415 1071 m 731 754 q 747 873 731 846 q 811 901 763 900 l 842 939 l 832 956 q 711 949 763 949 q 583 956 657 949 l 553 918 l 563 901 q 644 874 625 900 q 664 754 664 847 l 664 372 q 659 246 664 299 q 635 147 654 193 q 576 73 617 101 q 468 44 535 44 q 358 71 400 44 q 296 142 317 97 q 269 241 275 186 q 263 372 263 296 l 263 785 q 277 881 263 860 q 343 901 292 901 l 374 939 l 364 956 q 319 953 361 956 q 201 949 242 949 q 97 953 164 949 q 61 956 74 956 l 31 918 l 40 901 q 124 881 107 901 q 142 785 142 861 l 142 372 q 151 215 142 282 q 188 94 160 149 q 276 7 217 39 q 432 -25 336 -25 q 592 8 531 -25 q 683 96 653 40 q 722 217 713 151 q 731 372 731 283 l 731 754 z "},"Û":{"ha":875,"x_min":31,"x_max":842,"o":"m 275 1075 l 310 1049 l 451 1190 l 593 1049 l 628 1075 l 628 1103 q 611 1119 619 1111 q 535 1201 565 1167 q 481 1279 506 1236 l 422 1279 q 354 1188 389 1229 q 275 1103 319 1147 l 275 1075 m 731 754 q 747 873 731 846 q 811 901 763 900 l 842 939 l 832 956 q 711 949 763 949 q 583 956 657 949 l 553 918 l 563 901 q 644 874 625 900 q 664 754 664 847 l 664 372 q 659 246 664 299 q 635 147 654 193 q 576 73 617 101 q 468 44 535 44 q 358 71 400 44 q 296 142 317 97 q 269 241 275 186 q 263 372 263 296 l 263 785 q 277 881 263 860 q 343 901 292 901 l 374 939 l 364 956 q 319 953 361 956 q 201 949 242 949 q 97 953 164 949 q 61 956 74 956 l 31 918 l 40 901 q 124 881 107 901 q 142 785 142 861 l 142 372 q 151 215 142 282 q 188 94 160 149 q 276 7 217 39 q 432 -25 336 -25 q 592 8 531 -25 q 683 96 653 40 q 722 217 713 151 q 731 372 731 283 l 731 754 z "},"Ü":{"ha":875,"x_min":31,"x_max":842,"o":"m 332 1067 q 378 1090 361 1067 q 396 1146 396 1113 q 378 1202 396 1179 q 332 1225 361 1225 q 285 1202 303 1225 q 268 1146 268 1179 q 285 1090 268 1113 q 332 1067 303 1067 m 543 1067 q 590 1090 572 1067 q 607 1146 607 1113 q 590 1202 607 1179 q 543 1225 572 1225 q 497 1202 514 1225 q 479 1146 479 1179 q 497 1090 479 1113 q 543 1067 514 1067 m 731 754 q 747 873 731 846 q 811 901 763 900 l 842 939 l 832 956 q 711 949 763 949 q 583 956 657 949 l 553 918 l 563 901 q 644 874 625 900 q 664 754 664 847 l 664 372 q 659 246 664 299 q 635 147 654 193 q 576 73 617 101 q 468 44 535 44 q 358 71 400 44 q 296 142 317 97 q 269 241 275 186 q 263 372 263 296 l 263 785 q 277 881 263 860 q 343 901 292 901 l 374 939 l 364 956 q 319 953 361 956 q 201 949 242 949 q 97 953 164 949 q 61 956 74 956 l 31 918 l 40 901 q 124 881 107 901 q 142 785 142 861 l 142 372 q 151 215 142 282 q 188 94 160 149 q 276 7 217 39 q 432 -25 336 -25 q 592 8 531 -25 q 683 96 653 40 q 722 217 713 151 q 731 372 731 283 l 731 754 z "},"Ý":{"ha":797,"x_min":11,"x_max":785,"o":"m 376 1071 l 399 1049 l 629 1149 l 635 1172 l 565 1242 l 560 1236 q 466 1148 504 1181 q 381 1092 428 1115 l 376 1071 m 343 164 q 325 69 343 92 q 249 47 307 47 l 218 10 l 228 -7 l 267 -6 q 403 0 354 0 q 533 -6 447 0 l 558 -7 l 589 31 l 579 47 q 519 51 540 47 q 485 67 497 56 q 464 164 464 88 l 464 422 l 653 811 q 678 863 669 846 q 697 888 688 879 q 719 899 707 896 q 754 901 732 901 l 785 939 l 775 956 q 704 951 742 953 q 636 949 667 949 q 549 953 607 949 q 515 956 526 956 l 485 918 l 494 901 q 558 892 542 901 q 574 849 574 882 q 557 792 574 831 q 550 775 551 778 l 424 494 l 269 799 l 268 800 q 246 861 246 843 q 263 894 246 886 q 325 901 279 901 l 356 939 l 346 956 q 304 953 332 956 q 186 949 228 949 q 79 953 149 949 q 42 956 56 956 l 11 918 l 21 901 q 77 889 61 901 q 117 831 93 876 l 343 404 l 343 164 z "},"Þ":{"ha":694,"x_min":39,"x_max":632,"o":"m 150 164 q 135 69 150 90 q 69 47 119 47 l 39 10 l 49 -7 l 86 -4 q 210 0 163 0 q 329 -6 250 0 q 351 -7 344 -7 l 382 31 l 372 47 q 289 67 307 47 q 271 164 271 88 l 271 258 q 364 244 314 244 q 563 327 494 244 q 632 540 632 410 q 578 717 632 657 q 414 778 525 778 l 271 778 q 285 879 271 857 q 351 901 299 901 l 382 939 l 372 956 q 328 953 369 956 q 210 949 250 949 q 106 953 172 949 q 69 956 82 956 l 39 918 l 49 901 q 133 881 115 901 q 150 785 150 861 l 150 164 m 271 715 l 344 715 q 458 671 419 715 q 497 522 497 626 q 491 440 497 478 q 468 372 485 401 q 424 324 451 342 q 354 307 396 307 q 271 332 315 307 l 271 715 z "},"ß":{"ha":565,"x_min":-1,"x_max":544,"o":"m 96 164 q 83 69 96 90 q 26 44 69 47 l -1 7 l 7 -7 q 25 -6 21 -6 q 94 0 72 0 q 182 -6 122 0 q 196 -7 190 -7 l 196 775 q 210 886 196 850 q 261 922 225 922 q 315 890 293 922 q 336 796 336 857 q 321 682 336 729 q 272 568 306 635 l 256 533 l 256 481 q 363 347 292 428 q 442 247 418 286 q 467 154 467 207 q 447 63 467 96 q 388 29 426 29 q 332 78 350 29 q 314 192 314 128 l 292 199 l 256 153 l 256 25 q 313 -12 288 0 q 368 -25 338 -25 q 495 32 446 -25 q 544 179 544 89 q 507 309 544 251 q 393 450 469 367 q 310 544 335 511 q 394 674 361 603 q 428 833 428 744 q 391 958 428 911 q 299 1006 354 1006 q 243 991 276 1006 q 176 941 210 976 q 119 840 142 906 q 96 679 96 775 l 96 604 l 29 604 l 1 560 l 10 546 l 96 553 l 96 164 z "},"à":{"ha":540,"x_min":35,"x_max":521,"o":"m 313 731 l 335 753 l 331 774 q 244 831 283 799 q 153 918 206 864 l 146 924 l 76 854 l 82 831 l 313 731 m 349 -7 q 431 0 394 0 q 493 -7 463 0 l 521 31 l 513 44 q 459 64 469 44 q 449 164 449 83 l 449 469 q 422 610 449 564 q 314 656 394 656 q 230 646 272 656 q 151 616 188 636 q 93 563 115 596 q 71 488 71 531 l 71 450 l 86 439 l 197 492 q 192 529 192 514 q 211 581 192 561 q 265 601 231 601 q 329 563 310 601 q 349 436 349 524 l 349 383 q 240 374 293 383 q 140 338 186 364 q 64 265 93 313 q 35 147 35 218 q 42 86 35 117 q 67 31 50 56 q 110 -10 83 6 q 174 -25 136 -25 q 233 -10 204 -25 q 285 26 263 4 q 324 69 307 47 q 357 117 340 92 l 360 121 l 363 118 l 349 -7 m 349 289 q 307 124 349 189 q 215 58 265 58 q 153 88 172 58 q 135 161 135 118 q 156 243 135 210 q 209 297 176 276 q 278 326 242 317 q 349 338 314 336 l 349 289 z "},"á":{"ha":540,"x_min":35,"x_max":521,"o":"m 228 753 l 250 731 l 481 831 l 486 854 l 417 924 l 411 918 q 317 830 356 863 q 232 774 279 797 l 228 753 m 349 -7 q 431 0 394 0 q 493 -7 463 0 l 521 31 l 513 44 q 459 64 469 44 q 449 164 449 83 l 449 469 q 422 610 449 564 q 314 656 394 656 q 230 646 272 656 q 151 616 188 636 q 93 563 115 596 q 71 488 71 531 l 71 450 l 86 439 l 197 492 q 192 529 192 514 q 211 581 192 561 q 265 601 231 601 q 329 563 310 601 q 349 436 349 524 l 349 383 q 240 374 293 383 q 140 338 186 364 q 64 265 93 313 q 35 147 35 218 q 42 86 35 117 q 67 31 50 56 q 110 -10 83 6 q 174 -25 136 -25 q 233 -10 204 -25 q 285 26 263 4 q 324 69 307 47 q 357 117 340 92 l 360 121 l 363 118 l 349 -7 m 349 289 q 307 124 349 189 q 215 58 265 58 q 153 88 172 58 q 135 161 135 118 q 156 243 135 210 q 209 297 176 276 q 278 326 242 317 q 349 338 314 336 l 349 289 z "},"â":{"ha":540,"x_min":35,"x_max":521,"o":"m 94 757 l 129 731 l 271 872 l 413 731 l 447 757 l 447 785 q 431 801 439 793 q 355 883 385 849 q 300 961 325 918 l 242 961 q 174 870 208 911 q 94 785 139 829 l 94 757 m 349 -7 q 431 0 394 0 q 493 -7 463 0 l 521 31 l 513 44 q 459 64 469 44 q 449 164 449 83 l 449 469 q 422 610 449 564 q 314 656 394 656 q 230 646 272 656 q 151 616 188 636 q 93 563 115 596 q 71 488 71 531 l 71 450 l 86 439 l 197 492 q 192 529 192 514 q 211 581 192 561 q 265 601 231 601 q 329 563 310 601 q 349 436 349 524 l 349 383 q 240 374 293 383 q 140 338 186 364 q 64 265 93 313 q 35 147 35 218 q 42 86 35 117 q 67 31 50 56 q 110 -10 83 6 q 174 -25 136 -25 q 233 -10 204 -25 q 285 26 263 4 q 324 69 307 47 q 357 117 340 92 l 360 121 l 363 118 l 349 -7 m 349 289 q 307 124 349 189 q 215 58 265 58 q 153 88 172 58 q 135 161 135 118 q 156 243 135 210 q 209 297 176 276 q 278 326 242 317 q 349 338 314 336 l 349 289 z "},"ã":{"ha":540,"x_min":35,"x_max":521,"o":"m 78 768 l 125 756 l 128 760 q 156 798 144 786 q 186 810 168 810 q 253 788 203 810 q 313 764 288 772 q 361 756 338 756 q 410 790 394 756 l 450 888 l 403 899 q 376 856 390 868 q 343 844 363 844 q 267 869 324 844 q 214 891 236 883 q 174 899 192 899 q 121 864 136 899 l 78 768 m 349 -7 q 431 0 394 0 q 493 -7 463 0 l 521 31 l 513 44 q 459 64 469 44 q 449 164 449 83 l 449 469 q 422 610 449 564 q 314 656 394 656 q 230 646 272 656 q 151 616 188 636 q 93 563 115 596 q 71 488 71 531 l 71 450 l 86 439 l 197 492 q 192 529 192 514 q 211 581 192 561 q 265 601 231 601 q 329 563 310 601 q 349 436 349 524 l 349 383 q 240 374 293 383 q 140 338 186 364 q 64 265 93 313 q 35 147 35 218 q 42 86 35 117 q 67 31 50 56 q 110 -10 83 6 q 174 -25 136 -25 q 233 -10 204 -25 q 285 26 263 4 q 324 69 307 47 q 357 117 340 92 l 360 121 l 363 118 l 349 -7 m 349 289 q 307 124 349 189 q 215 58 265 58 q 153 88 172 58 q 135 161 135 118 q 156 243 135 210 q 209 297 176 276 q 278 326 242 317 q 349 338 314 336 l 349 289 z "},"ä":{"ha":540,"x_min":35,"x_max":521,"o":"m 165 749 q 212 772 194 749 q 229 828 229 794 q 212 884 229 861 q 165 907 194 907 q 119 884 136 907 q 101 828 101 861 q 119 772 101 794 q 165 749 136 749 m 376 749 q 423 772 406 749 q 440 828 440 794 q 423 884 440 861 q 376 907 406 907 q 330 884 347 907 q 313 828 313 861 q 330 772 313 794 q 376 749 347 749 m 349 -7 q 431 0 394 0 q 493 -7 463 0 l 521 31 l 513 44 q 459 64 469 44 q 449 164 449 83 l 449 469 q 422 610 449 564 q 314 656 394 656 q 230 646 272 656 q 151 616 188 636 q 93 563 115 596 q 71 488 71 531 l 71 450 l 86 439 l 197 492 q 192 529 192 514 q 211 581 192 561 q 265 601 231 601 q 329 563 310 601 q 349 436 349 524 l 349 383 q 240 374 293 383 q 140 338 186 364 q 64 265 93 313 q 35 147 35 218 q 42 86 35 117 q 67 31 50 56 q 110 -10 83 6 q 174 -25 136 -25 q 233 -10 204 -25 q 285 26 263 4 q 324 69 307 47 q 357 117 340 92 l 360 121 l 363 118 l 349 -7 m 349 289 q 307 124 349 189 q 215 58 265 58 q 153 88 172 58 q 135 161 135 118 q 156 243 135 210 q 209 297 176 276 q 278 326 242 317 q 349 338 314 336 l 349 289 z "},"å":{"ha":540,"x_min":35,"x_max":521,"o":"m 271 731 q 348 769 317 731 q 379 867 379 808 q 348 964 379 925 q 271 1003 317 1003 q 194 964 225 1003 q 163 867 163 925 q 194 769 163 808 q 271 731 226 731 m 215 867 q 228 927 215 904 q 271 950 242 950 q 313 927 300 950 q 326 867 326 904 q 313 806 326 829 q 271 783 300 783 q 228 806 242 783 q 215 867 215 829 m 349 -7 q 431 0 394 0 q 493 -7 463 0 l 521 31 l 513 44 q 459 64 469 44 q 449 164 449 83 l 449 469 q 422 610 449 564 q 314 656 394 656 q 230 646 272 656 q 151 616 188 636 q 93 563 115 596 q 71 488 71 531 l 71 450 l 86 439 l 197 492 q 192 529 192 514 q 211 581 192 561 q 265 601 231 601 q 329 563 310 601 q 349 436 349 524 l 349 383 q 240 374 293 383 q 140 338 186 364 q 64 265 93 313 q 35 147 35 218 q 42 86 35 117 q 67 31 50 56 q 110 -10 83 6 q 174 -25 136 -25 q 233 -10 204 -25 q 285 26 263 4 q 324 69 307 47 q 357 117 340 92 l 360 121 l 363 118 l 349 -7 m 349 289 q 307 124 349 189 q 215 58 265 58 q 153 88 172 58 q 135 161 135 118 q 156 243 135 210 q 209 297 176 276 q 278 326 242 317 q 349 338 314 336 l 349 289 z "},"æ":{"ha":849,"x_min":35,"x_max":797,"o":"m 797 161 l 778 171 q 774 167 775 168 q 697 89 735 119 q 608 58 658 58 q 532 86 563 58 q 486 158 501 114 q 465 250 471 203 q 460 344 460 297 l 774 344 q 790 442 790 385 q 776 521 790 482 q 737 590 763 560 q 676 638 711 621 q 601 656 642 656 q 513 635 549 656 q 438 574 476 615 q 314 656 406 656 q 230 646 272 656 q 151 616 188 636 q 93 563 115 596 q 71 488 71 531 l 71 450 l 86 439 l 197 492 q 192 529 192 514 q 211 581 192 561 q 265 601 231 601 q 337 562 314 601 q 360 436 360 522 l 360 396 q 241 383 297 394 q 138 346 185 372 q 63 271 92 319 q 35 147 35 222 q 43 86 35 117 q 69 31 51 56 q 115 -10 86 6 q 182 -25 143 -25 q 297 20 243 -25 q 393 147 351 65 q 586 -25 447 -25 q 697 9 646 -25 q 785 85 749 43 l 797 161 m 360 292 q 315 124 360 189 q 215 58 271 58 q 153 88 172 58 q 135 161 135 118 q 156 247 135 211 q 213 303 178 282 q 285 333 247 324 q 360 344 324 343 l 360 292 m 465 396 q 475 465 468 429 q 497 531 482 500 q 532 582 511 563 q 582 601 553 601 q 639 581 615 601 q 675 528 663 560 q 693 464 688 497 q 699 403 699 431 l 465 396 z "},"ç":{"ha":540,"x_min":51,"x_max":500,"o":"m 215 -108 l 243 -146 q 285 -128 267 -128 q 324 -175 324 -128 q 286 -221 324 -221 q 240 -192 257 -221 l 226 -186 l 197 -214 q 241 -258 218 -242 q 297 -274 264 -274 q 361 -246 332 -274 q 390 -174 390 -218 q 365 -108 390 -135 q 308 -82 340 -82 q 282 -85 299 -82 l 318 -19 q 415 28 375 -8 q 489 115 456 65 l 500 189 l 481 201 q 397 97 438 136 q 296 58 356 58 q 195 133 233 58 q 157 335 157 207 q 163 419 157 375 q 183 505 168 463 q 224 574 197 547 q 290 601 250 601 q 347 582 322 601 q 390 533 372 563 q 419 472 408 503 q 435 413 431 440 l 449 404 l 482 447 l 482 606 q 397 641 442 626 q 297 656 351 656 q 122 561 192 656 q 51 297 51 467 q 108 72 51 161 q 263 -24 165 -18 l 215 -108 z "},"è":{"ha":540,"x_min":44,"x_max":483,"o":"m 306 731 l 328 753 l 324 774 q 238 831 276 799 q 146 918 199 864 l 139 924 l 69 854 l 75 831 l 306 731 m 483 161 l 464 171 q 460 167 461 168 q 383 89 421 119 q 294 58 344 58 q 217 89 247 58 q 171 166 186 119 q 150 263 156 213 q 144 364 144 314 l 460 364 q 476 442 476 397 q 463 521 476 482 q 423 590 449 560 q 363 638 397 621 q 288 656 328 656 q 187 627 232 656 q 110 549 142 599 q 61 435 78 499 q 44 301 44 371 q 107 61 44 147 q 272 -25 169 -25 q 383 9 332 -25 q 471 85 435 43 l 483 161 m 150 415 q 160 478 153 446 q 181 539 167 511 q 217 584 196 567 q 268 601 239 601 q 325 583 301 601 q 361 536 349 564 q 379 478 374 508 q 385 422 385 449 l 150 415 z "},"é":{"ha":540,"x_min":44,"x_max":493,"o":"m 235 753 l 257 731 l 488 831 l 493 854 l 424 924 l 418 918 q 324 830 363 863 q 239 774 286 797 l 235 753 m 483 161 l 464 171 q 460 167 461 168 q 383 89 421 119 q 294 58 344 58 q 217 89 247 58 q 171 166 186 119 q 150 263 156 213 q 144 364 144 314 l 460 364 q 476 442 476 397 q 463 521 476 482 q 423 590 449 560 q 363 638 397 621 q 288 656 328 656 q 187 627 232 656 q 110 549 142 599 q 61 435 78 499 q 44 301 44 371 q 107 61 44 147 q 272 -25 169 -25 q 383 9 332 -25 q 471 85 435 43 l 483 161 m 150 415 q 160 478 153 446 q 181 539 167 511 q 217 584 196 567 q 268 601 239 601 q 325 583 301 601 q 361 536 349 564 q 379 478 374 508 q 385 422 385 449 l 150 415 z "},"ê":{"ha":540,"x_min":44,"x_max":483,"o":"m 108 757 l 143 731 l 285 872 l 426 731 l 461 757 l 461 785 q 444 801 453 793 q 369 883 399 849 q 314 961 339 918 l 256 961 q 188 870 222 911 q 108 785 153 829 l 108 757 m 483 161 l 464 171 q 460 167 461 168 q 383 89 421 119 q 294 58 344 58 q 217 89 247 58 q 171 166 186 119 q 150 263 156 213 q 144 364 144 314 l 460 364 q 476 442 476 397 q 463 521 476 482 q 423 590 449 560 q 363 638 397 621 q 288 656 328 656 q 187 627 232 656 q 110 549 142 599 q 61 435 78 499 q 44 301 44 371 q 107 61 44 147 q 272 -25 169 -25 q 383 9 332 -25 q 471 85 435 43 l 483 161 m 150 415 q 160 478 153 446 q 181 539 167 511 q 217 584 196 567 q 268 601 239 601 q 325 583 301 601 q 361 536 349 564 q 379 478 374 508 q 385 422 385 449 l 150 415 z "},"ë":{"ha":540,"x_min":44,"x_max":483,"o":"m 165 749 q 212 772 194 749 q 229 828 229 794 q 212 884 229 861 q 165 907 194 907 q 119 884 136 907 q 101 828 101 861 q 119 772 101 794 q 165 749 136 749 m 376 749 q 423 772 406 749 q 440 828 440 794 q 423 884 440 861 q 376 907 406 907 q 330 884 347 907 q 313 828 313 861 q 330 772 313 794 q 376 749 347 749 m 483 161 l 464 171 q 460 167 461 168 q 383 89 421 119 q 294 58 344 58 q 217 89 247 58 q 171 166 186 119 q 150 263 156 213 q 144 364 144 314 l 460 364 q 476 442 476 397 q 463 521 476 482 q 423 590 449 560 q 363 638 397 621 q 288 656 328 656 q 187 627 232 656 q 110 549 142 599 q 61 435 78 499 q 44 301 44 371 q 107 61 44 147 q 272 -25 169 -25 q 383 9 332 -25 q 471 85 435 43 l 483 161 m 150 415 q 160 478 153 446 q 181 539 167 511 q 217 584 196 567 q 268 601 239 601 q 325 583 301 601 q 361 536 349 564 q 379 478 374 508 q 385 422 385 449 l 150 415 z "},"ì":{"ha":335,"x_min":-47,"x_max":321,"o":"m 189 731 l 211 753 l 207 774 q 121 831 160 799 q 29 918 82 864 l 22 924 l -47 854 l -42 831 l 189 731 m 124 164 q 112 67 124 88 q 54 44 100 47 l 26 7 l 35 -7 q 60 -6 44 -7 q 174 0 138 0 q 258 -4 201 0 q 293 -7 278 -6 l 321 31 l 313 44 q 238 65 253 44 q 224 164 224 85 l 224 656 l 63 611 l 35 574 l 43 560 q 110 542 97 560 q 124 447 124 524 l 124 164 z "},"í":{"ha":335,"x_min":26,"x_max":376,"o":"m 118 753 l 140 731 l 371 831 l 376 854 l 307 924 l 301 918 q 208 830 246 863 q 122 774 169 797 l 118 753 m 124 164 q 112 67 124 88 q 54 44 100 47 l 26 7 l 35 -7 q 60 -6 44 -7 q 174 0 138 0 q 258 -4 201 0 q 293 -7 278 -6 l 321 31 l 313 44 q 238 65 253 44 q 224 164 224 85 l 224 656 l 63 611 l 35 574 l 43 560 q 110 542 97 560 q 124 447 124 524 l 124 164 z "},"î":{"ha":335,"x_min":-22,"x_max":331,"o":"m -22 757 l 13 731 l 154 872 l 296 731 l 331 757 l 331 785 q 314 801 322 793 q 238 883 268 849 q 183 961 208 918 l 125 961 q 57 870 92 911 q -22 785 22 829 l -22 757 m 124 164 q 112 67 124 88 q 54 44 100 47 l 26 7 l 35 -7 q 60 -6 44 -7 q 174 0 138 0 q 258 -4 201 0 q 293 -7 278 -6 l 321 31 l 313 44 q 238 65 253 44 q 224 164 224 85 l 224 656 l 63 611 l 35 574 l 43 560 q 110 542 97 560 q 124 447 124 524 l 124 164 z "},"ï":{"ha":335,"x_min":-1,"x_max":338,"o":"m 63 749 q 109 772 92 749 q 126 828 126 794 q 109 884 126 861 q 63 907 92 907 q 16 884 33 907 q -1 828 -1 861 q 16 772 -1 794 q 63 749 33 749 m 274 749 q 320 772 303 749 q 338 828 338 794 q 320 884 338 861 q 274 907 303 907 q 227 884 244 907 q 210 828 210 861 q 227 772 210 794 q 274 749 244 749 m 124 164 q 112 67 124 88 q 54 44 100 47 l 26 7 l 35 -7 q 60 -6 44 -7 q 174 0 138 0 q 258 -4 201 0 q 293 -7 278 -6 l 321 31 l 313 44 q 238 65 253 44 q 224 164 224 85 l 224 656 l 63 611 l 35 574 l 43 560 q 110 542 97 560 q 124 447 124 524 l 124 164 z "},"ð":{"ha":592,"x_min":49,"x_max":543,"o":"m 493 918 l 493 960 l 478 964 l 365 903 q 322 979 349 935 q 306 1006 308 1001 l 172 974 l 135 928 l 143 910 q 158 913 150 911 q 199 918 185 918 q 240 905 225 918 q 276 854 256 892 l 164 793 l 164 750 l 172 743 l 297 811 l 361 643 q 288 656 318 656 q 114 565 179 656 q 49 324 49 475 q 63 198 49 260 q 106 86 76 136 q 185 6 136 36 q 299 -25 233 -25 q 478 66 414 -25 q 543 315 543 157 q 505 548 543 428 q 396 838 467 668 q 386 860 389 853 l 493 918 m 154 357 q 188 536 154 471 q 292 601 221 601 q 405 516 367 601 q 443 285 443 431 q 408 97 443 164 q 304 29 372 29 q 191 117 228 29 q 154 357 154 204 z "},"ñ":{"ha":643,"x_min":18,"x_max":621,"o":"m 136 768 l 183 756 l 186 760 q 215 798 203 786 q 244 810 226 810 q 311 788 261 810 q 371 764 346 772 q 419 756 396 756 q 468 790 453 756 l 508 888 l 461 899 q 435 856 449 868 q 401 844 421 844 q 325 869 382 844 q 272 891 294 883 q 232 899 250 899 q 179 864 194 899 l 136 768 m 115 164 q 103 67 115 88 q 46 44 92 47 l 18 7 l 26 -7 q 51 -6 36 -7 q 165 0 129 0 q 250 -4 193 0 q 285 -7 269 -6 l 313 31 l 304 44 q 230 65 244 44 q 215 164 215 85 l 215 368 q 247 514 215 456 q 340 572 279 572 q 415 528 392 572 q 438 392 438 485 l 438 164 q 426 67 438 88 q 368 44 414 47 l 340 7 l 349 -7 q 374 -6 358 -7 q 488 0 451 0 q 561 -4 513 0 q 593 -7 574 -6 l 621 31 l 613 44 q 550 65 563 44 q 538 164 538 85 l 538 382 q 532 487 538 440 q 509 572 526 533 q 457 633 492 611 q 368 656 422 656 q 280 619 319 656 q 204 528 240 582 l 201 531 l 215 656 l 54 611 l 26 574 l 35 560 q 102 542 89 560 q 115 447 115 524 l 115 164 z "},"ò":{"ha":592,"x_min":47,"x_max":543,"o":"m 331 731 l 353 753 l 349 774 q 263 831 301 799 q 171 918 224 864 l 164 924 l 94 854 l 100 831 l 331 731 m 304 -25 q 476 67 410 -25 q 543 311 543 158 q 467 566 543 476 q 281 656 392 656 q 113 562 179 656 q 47 310 47 468 q 63 185 47 246 q 110 78 78 125 q 191 3 142 31 q 304 -25 240 -25 m 153 349 q 285 601 153 601 q 361 570 331 601 q 408 489 392 539 q 431 383 425 439 q 438 271 438 326 q 403 90 438 151 q 310 29 369 29 q 234 60 265 29 q 185 140 203 92 q 160 243 167 189 q 153 349 153 297 z "},"ó":{"ha":592,"x_min":47,"x_max":543,"o":"m 260 753 l 282 731 l 513 831 l 518 854 l 449 924 l 443 918 q 349 830 388 863 q 264 774 311 797 l 260 753 m 304 -25 q 476 67 410 -25 q 543 311 543 158 q 467 566 543 476 q 281 656 392 656 q 113 562 179 656 q 47 310 47 468 q 63 185 47 246 q 110 78 78 125 q 191 3 142 31 q 304 -25 240 -25 m 153 349 q 285 601 153 601 q 361 570 331 601 q 408 489 392 539 q 431 383 425 439 q 438 271 438 326 q 403 90 438 151 q 310 29 369 29 q 234 60 265 29 q 185 140 203 92 q 160 243 167 189 q 153 349 153 297 z "},"ô":{"ha":592,"x_min":47,"x_max":543,"o":"m 133 757 l 168 731 l 310 872 l 451 731 l 486 757 l 486 785 q 469 801 478 793 q 394 883 424 849 q 339 961 364 918 l 281 961 q 213 870 247 911 q 133 785 178 829 l 133 757 m 304 -25 q 476 67 410 -25 q 543 311 543 158 q 467 566 543 476 q 281 656 392 656 q 113 562 179 656 q 47 310 47 468 q 63 185 47 246 q 110 78 78 125 q 191 3 142 31 q 304 -25 240 -25 m 153 349 q 285 601 153 601 q 361 570 331 601 q 408 489 392 539 q 431 383 425 439 q 438 271 438 326 q 403 90 438 151 q 310 29 369 29 q 234 60 265 29 q 185 140 203 92 q 160 243 167 189 q 153 349 153 297 z "},"õ":{"ha":592,"x_min":47,"x_max":543,"o":"m 110 768 l 157 756 l 160 760 q 188 798 176 786 q 218 810 200 810 q 285 788 235 810 q 344 764 319 772 q 393 756 369 756 q 442 790 426 756 l 482 888 l 435 899 q 408 856 422 868 q 375 844 394 844 q 299 869 356 844 q 246 891 268 883 q 206 899 224 899 q 153 864 168 899 l 110 768 m 304 -25 q 476 67 410 -25 q 543 311 543 158 q 467 566 543 476 q 281 656 392 656 q 113 562 179 656 q 47 310 47 468 q 63 185 47 246 q 110 78 78 125 q 191 3 142 31 q 304 -25 240 -25 m 153 349 q 285 601 153 601 q 361 570 331 601 q 408 489 392 539 q 431 383 425 439 q 438 271 438 326 q 403 90 438 151 q 310 29 369 29 q 234 60 265 29 q 185 140 203 92 q 160 243 167 189 q 153 349 153 297 z "},"ö":{"ha":592,"x_min":47,"x_max":543,"o":"m 211 749 q 258 772 240 749 q 275 828 275 794 q 258 884 275 861 q 211 907 240 907 q 165 884 182 907 q 147 828 147 861 q 165 772 147 794 q 211 749 182 749 m 422 749 q 469 772 451 749 q 486 828 486 794 q 469 884 486 861 q 422 907 451 907 q 376 884 393 907 q 358 828 358 861 q 376 772 358 794 q 422 749 393 749 m 304 -25 q 476 67 410 -25 q 543 311 543 158 q 467 566 543 476 q 281 656 392 656 q 113 562 179 656 q 47 310 47 468 q 63 185 47 246 q 110 78 78 125 q 191 3 142 31 q 304 -25 240 -25 m 153 349 q 285 601 153 601 q 361 570 331 601 q 408 489 392 539 q 431 383 425 439 q 438 271 438 326 q 403 90 438 151 q 310 29 369 29 q 234 60 265 29 q 185 140 203 92 q 160 243 167 189 q 153 349 153 297 z "},"÷":{"ha":1003,"x_min":154,"x_max":849,"o":"m 501 0 q 553 22 532 0 q 575 74 575 43 q 553 126 575 104 q 501 147 532 147 q 449 126 469 147 q 428 74 428 106 q 449 21 428 42 q 501 0 469 0 m 154 285 l 849 285 l 849 368 l 154 368 l 154 285 m 501 506 q 553 527 532 506 q 575 579 575 549 q 553 631 575 610 q 501 653 532 653 q 449 632 469 653 q 428 579 428 611 q 449 526 428 547 q 501 506 469 506 z "},"ø":{"ha":592,"x_min":47,"x_max":543,"o":"m 54 -12 l 63 -25 l 108 -25 l 146 35 q 304 -25 208 -25 q 476 67 410 -25 q 543 313 543 160 q 476 549 543 454 l 539 644 l 531 656 l 485 656 l 442 590 q 281 656 375 656 q 113 563 179 656 q 47 311 47 469 q 63 183 47 244 q 111 76 79 122 l 54 -12 m 417 454 q 433 365 428 413 q 438 271 438 318 q 403 90 438 151 q 310 29 369 29 q 244 51 271 29 q 197 114 217 72 l 417 454 m 174 174 q 158 260 163 214 q 153 349 153 307 q 285 601 153 601 q 349 579 322 601 q 393 515 375 557 l 174 174 z "},"ù":{"ha":643,"x_min":21,"x_max":611,"o":"m 343 731 l 365 753 l 361 774 q 275 831 314 799 q 183 918 236 864 l 176 924 l 107 854 l 113 831 l 343 731 m 428 -7 q 444 -6 432 -7 q 504 0 488 0 q 564 -4 524 0 l 583 -7 l 611 31 l 603 44 q 540 65 553 44 q 528 164 528 85 l 528 656 l 367 611 l 339 574 l 347 560 q 415 542 401 560 q 428 447 428 524 l 428 289 q 422 207 428 247 q 401 133 415 167 q 364 78 386 99 q 310 58 342 58 q 257 76 278 58 q 226 124 236 94 q 213 183 217 153 q 210 247 210 214 l 210 656 l 49 611 l 21 574 l 29 560 q 97 542 83 560 q 110 447 110 524 l 110 200 q 124 89 110 133 q 160 19 138 44 q 211 -15 183 -6 q 271 -25 239 -25 q 331 -11 304 -25 q 378 24 358 3 q 410 68 397 46 q 439 121 424 90 l 442 118 l 428 -7 z "},"ú":{"ha":643,"x_min":21,"x_max":611,"o":"m 286 753 l 308 731 l 539 831 l 544 854 l 475 924 l 469 918 q 376 830 414 863 q 290 774 338 797 l 286 753 m 428 -7 q 444 -6 432 -7 q 504 0 488 0 q 564 -4 524 0 l 583 -7 l 611 31 l 603 44 q 540 65 553 44 q 528 164 528 85 l 528 656 l 367 611 l 339 574 l 347 560 q 415 542 401 560 q 428 447 428 524 l 428 289 q 422 207 428 247 q 401 133 415 167 q 364 78 386 99 q 310 58 342 58 q 257 76 278 58 q 226 124 236 94 q 213 183 217 153 q 210 247 210 214 l 210 656 l 49 611 l 21 574 l 29 560 q 97 542 83 560 q 110 447 110 524 l 110 200 q 124 89 110 133 q 160 19 138 44 q 211 -15 183 -6 q 271 -25 239 -25 q 331 -11 304 -25 q 378 24 358 3 q 410 68 397 46 q 439 121 424 90 l 442 118 l 428 -7 z "},"û":{"ha":643,"x_min":21,"x_max":611,"o":"m 146 757 l 181 731 l 322 872 l 464 731 l 499 757 l 499 785 q 482 801 490 793 q 406 883 436 849 q 351 961 376 918 l 293 961 q 225 870 260 911 q 146 785 190 829 l 146 757 m 428 -7 q 444 -6 432 -7 q 504 0 488 0 q 564 -4 524 0 l 583 -7 l 611 31 l 603 44 q 540 65 553 44 q 528 164 528 85 l 528 656 l 367 611 l 339 574 l 347 560 q 415 542 401 560 q 428 447 428 524 l 428 289 q 422 207 428 247 q 401 133 415 167 q 364 78 386 99 q 310 58 342 58 q 257 76 278 58 q 226 124 236 94 q 213 183 217 153 q 210 247 210 214 l 210 656 l 49 611 l 21 574 l 29 560 q 97 542 83 560 q 110 447 110 524 l 110 200 q 124 89 110 133 q 160 19 138 44 q 211 -15 183 -6 q 271 -25 239 -25 q 331 -11 304 -25 q 378 24 358 3 q 410 68 397 46 q 439 121 424 90 l 442 118 l 428 -7 z "},"ü":{"ha":643,"x_min":21,"x_max":611,"o":"m 217 749 q 263 772 246 749 q 281 828 281 794 q 263 884 281 861 q 217 907 246 907 q 170 884 188 907 q 153 828 153 861 q 170 772 153 794 q 217 749 188 749 m 428 749 q 474 772 457 749 q 492 828 492 794 q 474 884 492 861 q 428 907 457 907 q 381 884 399 907 q 364 828 364 861 q 381 772 364 794 q 428 749 399 749 m 428 -7 q 444 -6 432 -7 q 504 0 488 0 q 564 -4 524 0 l 583 -7 l 611 31 l 603 44 q 540 65 553 44 q 528 164 528 85 l 528 656 l 367 611 l 339 574 l 347 560 q 415 542 401 560 q 428 447 428 524 l 428 289 q 422 207 428 247 q 401 133 415 167 q 364 78 386 99 q 310 58 342 58 q 257 76 278 58 q 226 124 236 94 q 213 183 217 153 q 210 247 210 214 l 210 656 l 49 611 l 21 574 l 29 560 q 97 542 83 560 q 110 447 110 524 l 110 200 q 124 89 110 133 q 160 19 138 44 q 211 -15 183 -6 q 271 -25 239 -25 q 331 -11 304 -25 q 378 24 358 3 q 410 68 397 46 q 439 121 424 90 l 442 118 l 428 -7 z "},"ý":{"ha":617,"x_min":3,"x_max":610,"o":"m 272 753 l 294 731 l 525 831 l 531 854 l 461 924 l 456 918 q 362 830 400 863 q 276 774 324 797 l 272 753 m 222 -131 q 185 -214 201 -182 q 153 -263 169 -246 q 118 -287 138 -281 q 71 -294 99 -294 l 43 -332 l 51 -346 q 82 -344 74 -344 q 204 -339 165 -339 q 322 -344 251 -339 l 339 -346 l 367 -308 l 358 -294 q 283 -287 299 -294 q 267 -247 267 -281 q 281 -181 267 -229 q 311 -86 294 -133 l 504 501 q 536 570 522 557 q 582 586 550 583 l 610 624 l 601 638 q 546 635 583 638 q 474 631 499 631 q 394 635 446 631 l 363 638 l 335 600 l 343 586 q 410 574 393 586 q 426 518 426 563 q 422 483 426 503 q 410 429 418 463 l 408 425 l 328 146 l 325 146 l 168 638 q 99 631 131 631 q 31 638 58 631 l 3 600 l 11 586 q 63 572 49 586 q 100 496 78 557 l 278 7 l 222 -131 z "},"þ":{"ha":643,"x_min":19,"x_max":608,"o":"m 117 -175 q 105 -272 117 -251 q 47 -294 93 -293 l 19 -332 l 28 -346 q 53 -344 38 -346 q 167 -339 131 -339 q 275 -343 204 -339 q 314 -346 300 -346 l 342 -308 l 333 -294 q 269 -290 292 -294 q 235 -274 247 -286 q 220 -239 224 -261 q 217 -175 217 -217 l 217 25 q 283 -12 249 1 q 353 -25 317 -25 q 538 76 467 -25 q 608 350 608 176 q 553 570 608 485 q 406 656 497 656 q 297 626 338 656 q 217 542 257 596 l 213 536 l 210 539 l 224 1006 l 56 961 l 28 924 l 36 910 q 103 892 90 910 q 117 797 117 874 l 117 -175 m 217 307 q 256 503 217 435 q 367 572 294 572 q 472 498 440 572 q 503 290 503 424 q 464 101 503 174 q 356 29 425 29 q 286 53 314 29 q 243 117 258 76 q 222 204 228 157 q 217 307 217 251 z "},"ÿ":{"ha":617,"x_min":3,"x_max":610,"o":"m 203 749 q 249 772 232 749 q 267 828 267 794 q 249 884 267 861 q 203 907 232 907 q 156 884 174 907 q 139 828 139 861 q 156 772 139 794 q 203 749 174 749 m 414 749 q 460 772 443 749 q 478 828 478 794 q 460 884 478 861 q 414 907 443 907 q 367 884 385 907 q 350 828 350 861 q 367 772 350 794 q 414 749 385 749 m 222 -131 q 185 -214 201 -182 q 153 -263 169 -246 q 118 -287 138 -281 q 71 -294 99 -294 l 43 -332 l 51 -346 q 82 -344 74 -344 q 204 -339 165 -339 q 322 -344 251 -339 l 339 -346 l 367 -308 l 358 -294 q 283 -287 299 -294 q 267 -247 267 -281 q 281 -181 267 -229 q 311 -86 294 -133 l 504 501 q 536 570 522 557 q 582 586 550 583 l 610 624 l 601 638 q 546 635 583 638 q 474 631 499 631 q 394 635 446 631 l 363 638 l 335 600 l 343 586 q 410 574 393 586 q 426 518 426 563 q 422 483 426 503 q 410 429 418 463 l 408 425 l 328 146 l 325 146 l 168 638 q 99 631 131 631 q 31 638 58 631 l 3 600 l 11 586 q 63 572 49 586 q 100 496 78 557 l 278 7 l 222 -131 z "}}}
